<?xml version="1.0" encoding="UTF-8"?>
<svg version="1.1" xmlns="http://www.w3.org/2000/svg" width="200" height="200">
<path d="M0 0 C17.58381159 14.90379235 28.55807281 36.56265642 30.8125 59.46875 C32.33222454 85.03744876 23.36345815 105.29537789 9.8125 126.46875 C13.2775 125.47875 13.2775 125.47875 16.8125 124.46875 C22.25998395 129.78977502 27.68801844 135.13005908 33.1027832 140.484375 C34.94826038 142.30466072 36.79819356 144.12043998 38.65258789 145.93164062 C41.31271384 148.53132533 43.95655133 151.1466362 46.59765625 153.765625 C47.43402115 154.57618347 48.27038605 155.38674194 49.13209534 156.22186279 C49.89295944 156.98234924 50.65382355 157.74283569 51.43774414 158.52636719 C52.11503067 159.19255066 52.7923172 159.85873413 53.49012756 160.54510498 C54.8125 162.46875 54.8125 162.46875 54.60113525 164.6111908 C53.08981595 168.17096708 50.20403378 170.58896012 47.5 173.28125 C46.91798828 173.89162109 46.33597656 174.50199219 45.73632812 175.13085938 C45.16720703 175.70255859 44.59808594 176.27425781 44.01171875 176.86328125 C43.49440186 177.38768799 42.97708496 177.91209473 42.4440918 178.45239258 C40.8125 179.46875 40.8125 179.46875 38.94644165 179.23797607 C36.35931592 178.30538986 35.01239756 177.08821652 33.0378418 175.17749023 C32.31416916 174.48264023 31.59049652 173.78779022 30.84489441 173.07188416 C30.07494644 172.31468582 29.30499847 171.55748749 28.51171875 170.77734375 C27.71594925 169.99867447 26.92017975 169.22000519 26.10029602 168.41773987 C24.42096208 166.76674181 22.74594885 165.11133909 21.07495117 163.4519043 C18.5128378 160.91894174 15.92056723 158.41975171 13.32617188 155.91992188 C11.6985502 154.31188802 10.07283331 152.70192344 8.44921875 151.08984375 C7.66914963 150.34681503 6.88908051 149.60378632 6.08537292 148.83824158 C0.93463245 143.62199345 0.93463245 143.62199345 0.56729126 140.15335083 C0.83520508 137.92993164 0.83520508 137.92993164 1.8125 134.46875 C-2.33497386 136.77290214 -6.30266133 139.21024446 -10.25 141.84375 C-30.42228538 154.72085272 -53.62303746 158.27970538 -76.88671875 153.5 C-99.91653925 148.25625501 -119.42894156 134.255866 -132.25 114.40625 C-144.442667 93.91973393 -148.64310046 70.50327977 -143.21875 47.1484375 C-136.42471306 22.90607841 -122.63643106 3.42343388 -100.73828125 -9.609375 C-68.17337032 -27.7220815 -28.69043687 -23.22221004 0 0 Z M-111.79882812 15.98193359 C-118.62727076 23.29297713 -123.60187483 31.15746251 -127.1875 40.46875 C-127.48269531 41.18160156 -127.77789062 41.89445312 -128.08203125 42.62890625 C-134.7758923 60.27036272 -133.0651573 80.20709333 -126.1875 97.46875 C-116.95510848 116.94437882 -101.8102517 130.31098971 -82.03125 138.171875 C-64.62216776 144.33815568 -43.65416018 143.51495343 -27.00537109 135.70068359 C-20.58232417 132.55172706 -14.64659211 129.12579541 -9.1875 124.46875 C-8.62289062 124.0459375 -8.05828125 123.623125 -7.4765625 123.1875 C7.07720064 111.86058932 14.46109496 93.88612399 17.34765625 76.1875 C19.5111045 56.09478518 13.49309358 36.21971603 1.00512695 20.38696289 C-12.17100576 4.46046106 -30.42594089 -5.23158038 -51.01049805 -7.1875 C-74.23403767 -8.95585995 -95.54389669 -0.62037256 -111.79882812 15.98193359 Z " fill="#2B2B2B" transform="translate(145.1875,20.53125)"/>
<path d="M0 0 C9.2118124 7.29897704 17.42947889 15.81201438 21.8515625 26.91015625 C22.44431769 32.9206939 15.77702858 39.39144444 12.19604492 43.88110352 C2.53392137 55.60007416 -10.69341879 64.54852133 -25.953125 66.890625 C-42.72471431 68.34234489 -58.06753156 65.47598887 -71.578125 54.8203125 C-79.52937143 47.86297188 -89.33448218 39.10399072 -92.953125 28.890625 C-89.05753306 14.44731922 -75.62553069 2.75185441 -63.23828125 -4.453125 C-42.52607792 -14.8954249 -18.9475682 -13.53397729 0 0 Z M-72.953125 16.890625 C-77.04741619 21.50992166 -77.04741619 21.50992166 -79.953125 26.890625 C-77.86933927 35.98221069 -67.23925891 44.51798419 -59.58984375 49.3984375 C-56.35020077 51.30334987 -56.35020077 51.30334987 -52.953125 52.890625 C-51.963125 52.395625 -51.963125 52.395625 -50.953125 51.890625 C-51.819375 51.313125 -52.685625 50.735625 -53.578125 50.140625 C-59.23104539 45.33564267 -62.37676237 38.59814912 -63.50390625 31.34765625 C-63.8662561 21.85409012 -61.65089789 15.02860894 -55.328125 7.953125 C-54.544375 7.2725 -53.760625 6.591875 -52.953125 5.890625 C-52.355 5.2925 -51.756875 4.694375 -51.140625 4.078125 C-50.74875 3.68625 -50.356875 3.294375 -49.953125 2.890625 C-58.53743634 2.890625 -67.08695454 11.32347972 -72.953125 16.890625 Z M-17.953125 3.890625 C-17.56640625 4.3753125 -17.1796875 4.86 -16.78125 5.359375 C-11.17029446 12.58139698 -6.59682587 19.43385237 -6.953125 28.890625 C-8.07515706 37.05772371 -10.60168783 42.70442325 -15.953125 48.890625 C-16.613125 49.880625 -17.273125 50.870625 -17.953125 51.890625 C-7.40307897 50.50545709 0.70704014 40.73529979 7.046875 32.890625 C9.29881333 30.16343367 9.29881333 30.16343367 8.9140625 27.53515625 C5.83664352 18.15041458 -3.70027725 10.69775821 -11.953125 5.890625 C-13.93377263 5.1684897 -15.93069927 4.48580446 -17.953125 3.890625 Z M-47.578125 14.28515625 C-51.74770825 19.18689847 -53.43901624 23.17463239 -53.26171875 29.515625 C-52.6380278 34.31567686 -50.81940472 38.18128244 -47.234375 41.46484375 C-42.05031181 45.29797522 -37.45436577 46.54694073 -30.953125 45.890625 C-25.51432634 44.04143345 -22.17950775 40.51475662 -18.953125 35.890625 C-17.01517341 30.07677024 -16.93256808 23.96953724 -19.640625 18.453125 C-23.66528052 13.99337159 -27.07349228 11.39180782 -32.953125 9.890625 C-38.2112595 9.890625 -43.46477469 10.75518976 -47.578125 14.28515625 Z " fill="#2B2B2B" transform="translate(121.953125,61.109375)"/>
</svg>
