<?xml version="1.0" encoding="UTF-8"?>
<svg version="1.1" xmlns="http://www.w3.org/2000/svg" width="591" height="591">
<path d="M0 0 C2.2421379 0.05983142 4.48432663 0.11778857 6.7265625 0.17382812 C30.12770735 0.81520735 30.12770735 0.81520735 32.125 2.8125 C33.7656333 3.11323315 35.41300254 3.37745971 37.0625 3.625 C41.85387011 4.46364393 46.01979615 5.77232547 50.4765625 7.69140625 C53.4065405 8.93167717 56.38117548 9.98602799 59.375 11.0625 C66.75827883 13.86972997 73.38590036 17.74075014 80.125 21.8125 C80.125 22.4725 80.125 23.1325 80.125 23.8125 C81.445 24.1425 82.765 24.4725 84.125 24.8125 C84.125 25.4725 84.125 26.1325 84.125 26.8125 C84.846875 26.915625 85.56875 27.01875 86.3125 27.125 C89.40246686 27.88032523 91.52058686 29.00387976 94.125 30.8125 C94.455 31.4725 94.785 32.1325 95.125 32.8125 C96.115 33.1425 97.105 33.4725 98.125 33.8125 C98.125 34.4725 98.125 35.1325 98.125 35.8125 C99.115 36.1425 100.105 36.4725 101.125 36.8125 C101.125 37.4725 101.125 38.1325 101.125 38.8125 C102.115 39.1425 103.105 39.4725 104.125 39.8125 C104.125 40.4725 104.125 41.1325 104.125 41.8125 C105.115 41.8125 106.105 41.8125 107.125 41.8125 C107.125 42.4725 107.125 43.1325 107.125 43.8125 C107.7025 44.080625 108.28 44.34875 108.875 44.625 C111.18050043 45.84179189 113.14556192 47.11583879 115.125 48.8125 C115.125 49.4725 115.125 50.1325 115.125 50.8125 C116.115 51.1425 117.105 51.4725 118.125 51.8125 C118.125 52.4725 118.125 53.1325 118.125 53.8125 C118.785 53.8125 119.445 53.8125 120.125 53.8125 C121.48676922 55.45601457 122.81462066 57.12772656 124.125 58.8125 C125.3625 60.0190625 125.3625 60.0190625 126.625 61.25 C129.125 63.8125 129.125 63.8125 131.125 66.875 C132.9910769 69.92788892 132.9910769 69.92788892 135.875 72 C136.6175 72.598125 137.36 73.19625 138.125 73.8125 C138.125 74.8025 138.125 75.7925 138.125 76.8125 C138.785 76.8125 139.445 76.8125 140.125 76.8125 C144.125 82.22426471 144.125 82.22426471 144.125 84.8125 C144.785 84.8125 145.445 84.8125 146.125 84.8125 C148.94266739 89.58345076 148.66168499 94.42161943 148.125 99.8125 C146.75 102.8125 146.75 102.8125 145.125 104.8125 C144.465 105.8025 143.805 106.7925 143.125 107.8125 C142.465 107.8125 141.805 107.8125 141.125 107.8125 C141.125 108.8025 141.125 109.7925 141.125 110.8125 C139.4853279 112.17889342 137.81389872 113.5074419 136.125 114.8125 C135.0421875 116.17375 135.0421875 116.17375 133.9375 117.5625 C133.339375 118.305 132.74125 119.0475 132.125 119.8125 C131.465 119.8125 130.805 119.8125 130.125 119.8125 C129.8775 120.369375 129.63 120.92625 129.375 121.5 C127.88629471 124.25410479 126.24090028 126.50424514 124.125 128.8125 C123.135 128.8125 122.145 128.8125 121.125 128.8125 C120.795 129.8025 120.465 130.7925 120.125 131.8125 C119.465 131.8125 118.805 131.8125 118.125 131.8125 C117.795 132.8025 117.465 133.7925 117.125 134.8125 C116.465 134.8125 115.805 134.8125 115.125 134.8125 C114.795 135.8025 114.465 136.7925 114.125 137.8125 C113.465 137.8125 112.805 137.8125 112.125 137.8125 C112.125 138.4725 112.125 139.1325 112.125 139.8125 C107.77205882 143.8125 107.77205882 143.8125 104.125 143.8125 C103.8775 144.39 103.63 144.9675 103.375 145.5625 C101.93106301 148.16158658 100.38978013 149.89086838 98.125 151.8125 C97.135 151.8125 96.145 151.8125 95.125 151.8125 C95.125 152.4725 95.125 153.1325 95.125 153.8125 C93.33463542 154.7890625 91.54427083 155.765625 89.75390625 156.7421875 C87.95881685 157.72660024 87.95881685 157.72660024 87.125 159.8125 C80.77205882 163.8125 80.77205882 163.8125 77.125 163.8125 C77.125 164.4725 77.125 165.1325 77.125 165.8125 C75.7328125 166.2146875 75.7328125 166.2146875 74.3125 166.625 C71.16585375 167.53501395 71.16585375 167.53501395 69.5625 169.4375 C68.125 170.8125 68.125 170.8125 65.4375 171 C64.674375 170.938125 63.91125 170.87625 63.125 170.8125 C62.795 171.8025 62.465 172.7925 62.125 173.8125 C57.59503975 176.91718007 52.37432803 178.41982113 47.125 179.8125 C46.795 180.1425 46.465 180.4725 46.125 180.8125 C43.45441149 180.95365161 40.80067762 180.85497107 38.125 180.8125 C37.795 181.8025 37.465 182.7925 37.125 183.8125 C33.165 183.8125 29.205 183.8125 25.125 183.8125 C24.795 184.8025 24.465 185.7925 24.125 186.8125 C9.935 186.8125 -4.255 186.8125 -18.875 186.8125 C-19.205 185.8225 -19.535 184.8325 -19.875 183.8125 C-24.165 183.8125 -28.455 183.8125 -32.875 183.8125 C-32.875 182.8225 -32.875 181.8325 -32.875 180.8125 C-33.44347656 180.84730469 -34.01195312 180.88210938 -34.59765625 180.91796875 C-35.36980469 180.94503906 -36.14195312 180.97210938 -36.9375 181 C-37.69160156 181.03480469 -38.44570312 181.06960938 -39.22265625 181.10546875 C-42.77472745 180.71311921 -45.68769973 179.33225883 -48.875 177.8125 C-49.54893799 177.49949951 -50.22287598 177.18649902 -50.91723633 176.86401367 C-53.03890437 175.86773719 -55.14508115 174.84363888 -57.25 173.8125 C-57.97316406 173.46960938 -58.69632812 173.12671875 -59.44140625 172.7734375 C-61.29251436 171.86351194 -63.08925532 170.8448186 -64.875 169.8125 C-65.205 168.8225 -65.535 167.8325 -65.875 166.8125 C-68.185 166.4825 -70.495 166.1525 -72.875 165.8125 C-72.875 165.1525 -72.875 164.4925 -72.875 163.8125 C-74.525 163.4825 -76.175 163.1525 -77.875 162.8125 C-77.875 162.1525 -77.875 161.4925 -77.875 160.8125 C-78.61363281 160.53664063 -79.35226563 160.26078125 -80.11328125 159.9765625 C-88.05156249 156.63058257 -95.59538265 150.63327266 -101.875 144.8125 C-101.875 144.1525 -101.875 143.4925 -101.875 142.8125 C-102.865 142.4825 -103.855 142.1525 -104.875 141.8125 C-104.875 141.1525 -104.875 140.4925 -104.875 139.8125 C-105.865 139.8125 -106.855 139.8125 -107.875 139.8125 C-109.5625 138.4375 -109.5625 138.4375 -110.875 136.8125 C-110.875 136.1525 -110.875 135.4925 -110.875 134.8125 C-111.76493652 134.4093457 -111.76493652 134.4093457 -112.67285156 133.99804688 C-114.88040033 132.80959268 -116.34042882 131.60507611 -118.109375 129.84375 C-118.68300781 129.27269531 -119.25664062 128.70164063 -119.84765625 128.11328125 C-120.43417969 127.51902344 -121.02070313 126.92476563 -121.625 126.3125 C-122.22699219 125.71824219 -122.82898438 125.12398438 -123.44921875 124.51171875 C-124.01769531 123.94066406 -124.58617187 123.36960937 -125.171875 122.78125 C-125.95062988 121.99911133 -125.95062988 121.99911133 -126.74511719 121.20117188 C-127.875 119.8125 -127.875 119.8125 -127.875 117.8125 C-128.535 117.8125 -129.195 117.8125 -129.875 117.8125 C-131.5 116.5 -131.5 116.5 -132.875 114.8125 C-132.875 113.8225 -132.875 112.8325 -132.875 111.8125 C-133.865 111.4825 -134.855 111.1525 -135.875 110.8125 C-135.875 110.1525 -135.875 109.4925 -135.875 108.8125 C-136.865 108.4825 -137.855 108.1525 -138.875 107.8125 C-142.19513181 104.12077192 -145.22781362 99.87408022 -145.625 94.8125 C-145.2382071 89.76383484 -142.17365447 85.50425838 -138.875 81.8125 C-138.215 81.8125 -137.555 81.8125 -136.875 81.8125 C-136.215 80.1625 -135.555 78.5125 -134.875 76.8125 C-134.215 76.8125 -133.555 76.8125 -132.875 76.8125 C-132.875 75.8225 -132.875 74.8325 -132.875 73.8125 C-132.215 73.8125 -131.555 73.8125 -130.875 73.8125 C-130.545 72.4925 -130.215 71.1725 -129.875 69.8125 C-129.215 69.8125 -128.555 69.8125 -127.875 69.8125 C-127.38 68.3275 -127.38 68.3275 -126.875 66.8125 C-126.215 66.8125 -125.555 66.8125 -124.875 66.8125 C-124.58625 66.214375 -124.2975 65.61625 -124 65 C-122.875 62.8125 -122.875 62.8125 -120.875 59.8125 C-120.215 59.8125 -119.555 59.8125 -118.875 59.8125 C-118.63652344 59.24660156 -118.39804688 58.68070313 -118.15234375 58.09765625 C-116.6027243 55.32540127 -114.71464175 53.45983707 -112.4375 51.25 C-111.65503906 50.48558594 -110.87257812 49.72117188 -110.06640625 48.93359375 C-109.34324219 48.23363281 -108.62007812 47.53367188 -107.875 46.8125 C-107.34777344 46.22597656 -106.82054687 45.63945312 -106.27734375 45.03515625 C-104.875 43.8125 -104.875 43.8125 -101.875 43.8125 C-101.545 42.8225 -101.215 41.8325 -100.875 40.8125 C-100.215 40.8125 -99.555 40.8125 -98.875 40.8125 C-98.545 39.8225 -98.215 38.8325 -97.875 37.8125 C-96.1328125 36.2421875 -96.1328125 36.2421875 -94 34.6875 C-93.30132812 34.16929687 -92.60265625 33.65109375 -91.8828125 33.1171875 C-89.875 31.8125 -89.875 31.8125 -86.875 30.8125 C-86.50448832 29.48901597 -86.17662628 28.15336184 -85.875 26.8125 C-81.29385588 19.630159 -74.77664772 16.10059353 -67.3125 12.4375 C-66.29736328 11.91800781 -65.28222656 11.39851563 -64.23632812 10.86328125 C-57.67640554 7.54689975 -51.75758864 4.70672435 -44.3125 4.4375 C-39.9393583 4.16500729 -36.57293008 3.39209399 -32.52734375 1.76171875 C-21.99591255 -1.58792919 -10.90724233 -0.38146678 0 0 Z M-22.375 65.5 C-22.87 66.263125 -23.365 67.02625 -23.875 67.8125 C-24.4525 68.34875 -25.03 68.885 -25.625 69.4375 C-27.2113364 70.87276027 -27.2113364 70.87276027 -26.875 73.8125 C-27.535 73.8125 -28.195 73.8125 -28.875 73.8125 C-32.77786746 81.78085441 -33.3305944 90.93156401 -31.1953125 99.55859375 C-30.34729153 101.93205159 -30.34729153 101.93205159 -28.875 104.8125 C-28.215 104.8125 -27.555 104.8125 -26.875 104.8125 C-26.7925 105.38742188 -26.71 105.96234375 -26.625 106.5546875 C-25.65030829 109.48891568 -24.11760874 110.83104965 -21.875 112.9375 C-17.95974576 116.64300847 -17.95974576 116.64300847 -16.875 118.8125 C-6.94242717 123.64019238 5.10493008 124.00693325 15.4375 120.4375 C18.31091271 119.37672695 20.15117737 118.18108715 22.125 115.8125 C22.125 115.1525 22.125 114.4925 22.125 113.8125 C23.445 113.1525 24.765 112.4925 26.125 111.8125 C26.125 111.1525 26.125 110.4925 26.125 109.8125 C26.785 109.8125 27.445 109.8125 28.125 109.8125 C28.41375 109.173125 28.7025 108.53375 29 107.875 C30.125 105.8125 30.125 105.8125 32.125 104.8125 C32.59023063 102.91716658 32.59023063 102.91716658 32.75 100.75 C32.935625 98.8009375 32.935625 98.8009375 33.125 96.8125 C33.785 96.8125 34.445 96.8125 35.125 96.8125 C35.125 91.8625 35.125 86.9125 35.125 81.8125 C34.465 81.8125 33.805 81.8125 33.125 81.8125 C33.021875 80.554375 32.91875 79.29625 32.8125 78 C32.42913853 74.7325411 32.42913853 74.7325411 30.6875 72 C30.171875 71.608125 29.65625 71.21625 29.125 70.8125 C28.465 69.8225 27.805 68.8325 27.125 67.8125 C26.465 67.8125 25.805 67.8125 25.125 67.8125 C25.125 66.8225 25.125 65.8325 25.125 64.8125 C24.135 64.8125 23.145 64.8125 22.125 64.8125 C22.125 63.8225 22.125 62.8325 22.125 61.8125 C21.135 61.8125 20.145 61.8125 19.125 61.8125 C19.125 61.1525 19.125 60.4925 19.125 59.8125 C13.02955566 57.17606214 7.93808134 56.23163782 1.3125 56.25 C-0.00427734 56.25253784 -0.00427734 56.25253784 -1.34765625 56.25512695 C-10.08930478 56.4967831 -16.36217318 59.03621117 -22.375 65.5 Z " fill="#000000" transform="translate(292.875,103.1875)"/>
<path d="M0 0 C2.17947652 2.17947652 1.45337729 7.55891199 1.60546875 10.62890625 C1.4970552 14.10944277 1.4970552 14.10944277 3 17 C3.28221172 19.58022142 3.44820197 22.16030185 3.62109375 24.75 C3.74613281 25.4925 3.87117188 26.235 4 27 C4.66 27.33 5.32 27.66 6 28 C6 29.65 6 31.3 6 33 C7.485 33.495 7.485 33.495 9 34 C9 35.65 9 37.3 9 39 C9.99 39 10.98 39 12 39 C12 40.32 12 41.64 12 43 C12.99 43 13.98 43 15 43 C15.24360427 45.92325122 15.19608294 47.62847443 13.8125 50.25 C11.58960307 52.39624531 9.99650825 52.52686712 7 53 C6.505 53.99 6.505 53.99 6 55 C4.35 55 2.7 55 1 55 C0.67 55.99 0.34 56.98 0 58 C-0.66 58 -1.32 58 -2 58 C-2.33 58.99 -2.66 59.98 -3 61 C-4.65 61 -6.3 61 -8 61 C-8 61.99 -8 62.98 -8 64 C-8.99 64 -9.98 64 -11 64 C-11 64.99 -11 65.98 -11 67 C-11.99 67 -12.98 67 -14 67 C-14 67.99 -14 68.98 -14 70 C-15.98 70 -17.96 70 -20 70 C-20 70.99 -20 71.98 -20 73 C-20.99 73 -21.98 73 -23 73 C-23 73.99 -23 74.98 -23 76 C-23.61875 76.45375 -24.2375 76.9075 -24.875 77.375 C-27.4277009 79.32706539 -28.02345207 80.98897721 -29 84 C-29.66 84 -30.32 84 -31 84 C-31.495 85.485 -31.495 85.485 -32 87 C-32.66 87 -33.32 87 -34 87 C-34 88.65 -34 90.3 -34 92 C-34.99 92.33 -35.98 92.66 -37 93 C-37 93.99 -37 94.98 -37 96 C-37.99 96 -38.98 96 -40 96 C-40 98.64 -40 101.28 -40 104 C-40.99 104.495 -40.99 104.495 -42 105 C-42.46954261 108.04581269 -42.46954261 108.04581269 -42.625 111.5625 C-42.69976562 112.76003906 -42.77453125 113.95757812 -42.8515625 115.19140625 C-42.90054688 116.11824219 -42.94953125 117.04507813 -43 118 C-42.01 118 -41.02 118 -40 118 C-40 120.97 -40 123.94 -40 127 C-39.01 127 -38.02 127 -37 127 C-37 128.65 -37 130.3 -37 132 C-36.01 132.33 -35.02 132.66 -34 133 C-33.6278958 134.32303717 -33.29369827 135.65737935 -33 137 C-32.34 137.33 -31.68 137.66 -31 138 C-31 138.99 -31 139.98 -31 141 C-30.01 141.33 -29.02 141.66 -28 142 C-28 142.66 -28 143.32 -28 144 C-27.34 144 -26.68 144 -26 144 C-24.375 145.3125 -24.375 145.3125 -23 147 C-23 147.99 -23 148.98 -23 150 C-22.01 150 -21.02 150 -20 150 C-20 150.99 -20 151.98 -20 153 C-19.01 153 -18.02 153 -17 153 C-17 153.99 -17 154.98 -17 156 C-16.01 156 -15.02 156 -14 156 C-14 156.66 -14 157.32 -14 158 C-13.319375 158.2475 -12.63875 158.495 -11.9375 158.75 C-2.64864865 162.7027027 -2.64864865 162.7027027 -1 166 C1.02463255 166.65213292 1.02463255 166.65213292 3 167 C3 167.99 3 168.98 3 170 C4.98 170 6.96 170 9 170 C9 170.99 9 171.98 9 173 C9.99 173 10.98 173 12 173 C12 173.99 12 174.98 12 176 C13.98 176 15.96 176 18 176 C18 176.99 18 177.98 18 179 C19.98 179 21.96 179 24 179 C24.33 179.66 24.66 180.32 25 181 C27.32156597 181.40729228 29.6568787 181.74438677 32 182 C32 182.66 32 183.32 32 184 C32.72316406 183.96261719 33.44632812 183.92523438 34.19140625 183.88671875 C37.20064779 184.00809289 39.17487371 184.64722161 41.9375 185.8125 C42.79988281 186.17472656 43.66226563 186.53695312 44.55078125 186.91015625 C47.42101269 188.18734058 50.2202344 189.53696547 53 191 C53 191.66 53 192.32 53 193 C56.63 193 60.26 193 64 193 C64 193.99 64 194.98 64 196 C66.97 196 69.94 196 73 196 C73.33 196.66 73.66 197.32 74 198 C76.35599235 198.46751788 76.35599235 198.46751788 79.0625 198.625 C79.98160156 198.69976562 80.90070313 198.77453125 81.84765625 198.8515625 C82.91306641 198.92503906 82.91306641 198.92503906 84 199 C84 199.99 84 200.98 84 202 C84.85464844 201.98839844 85.70929688 201.97679687 86.58984375 201.96484375 C87.69457031 201.95582031 88.79929688 201.94679688 89.9375 201.9375 C91.03964844 201.92589844 92.14179688 201.91429687 93.27734375 201.90234375 C96 202 96 202 97 203 C97.33 202.01 97.66 201.02 98 200 C97.01 199.67 96.02 199.34 95 199 C95 197.35 95 195.7 95 194 C94.01 194 93.02 194 92 194 C92 192.02 92 190.04 92 188 C91.01 187.67 90.02 187.34 89 187 C89 183.7 89 180.4 89 177 C89.99 176.67 90.98 176.34 92 176 C92 173.03 92 170.06 92 167 C92.99 167 93.98 167 95 167 C94.92652344 166.24332031 94.85304687 165.48664063 94.77734375 164.70703125 C95 162 95 162 96.37890625 160.19921875 C102.90449056 155.68150653 109.1109302 155.45012651 116.8125 155.4375 C117.82707275 155.43516357 118.84164551 155.43282715 119.88696289 155.43041992 C129.19183972 155.6379149 129.19183972 155.6379149 133 159 C133 159.66 133 160.32 133 161 C133.99 161 134.98 161 136 161 C136 161.99 136 162.98 136 164 C136.99 164 137.98 164 139 164 C139.103125 164.78375 139.20625 165.5675 139.3125 166.375 C139.77595022 169.33045181 139.77595022 169.33045181 143 171 C143.1875 173.625 143.1875 173.625 143 176 C143.99 176 144.98 176 146 176 C146 176.99 146 177.98 146 179 C146.99 179.33 147.98 179.66 149 180 C149.12375 180.5775 149.2475 181.155 149.375 181.75 C149.88111275 184.30311236 149.88111275 184.30311236 152.5625 186.5 C155 189 155 189 155 193 C155.66 193 156.32 193 157 193 C159.29013653 196.4352048 159.17842973 197.985331 159 202 C159.99 202 160.98 202 162 202 C162 203.98 162 205.96 162 208 C163.32 208 164.64 208 166 208 C166 208.99 166 209.98 166 211 C166.99 211.33 167.98 211.66 169 212 C169 213.32 169 214.64 169 216 C169.99 216.33 170.98 216.66 172 217 C172 217.66 172 218.32 172 219 C172.99 219.33 173.98 219.66 175 220 C175 221.65 175 223.3 175 225 C175.99 225.33 176.98 225.66 178 226 C178 233.26 178 240.52 178 248 C177.01 248.33 176.02 248.66 175 249 C175 250.65 175 252.3 175 254 C174.01 254.33 173.02 254.66 172 255 C171.67 255.99 171.34 256.98 171 258 C166.10204082 262.89795918 166.10204082 262.89795918 161.625 263.3125 C160.75875 263.209375 159.8925 263.10625 159 263 C158.67 264.65 158.34 266.3 158 268 C157.01 268.33 156.02 268.66 155 269 C154.67 269.99 154.34 270.98 154 272 C153.34 272 152.68 272 152 272 C151.67 272.99 151.34 273.98 151 275 C149.35 275 147.7 275 146 275 C146 275.99 146 276.98 146 278 C145.01 278 144.02 278 143 278 C142.67 278.99 142.34 279.98 142 281 C141.01 281 140.02 281 139 281 C139 281.99 139 282.98 139 284 C138.01 284 137.02 284 136 284 C136 284.99 136 285.98 136 287 C133.69 287.66 131.38 288.32 129 289 C129 289.99 129 290.98 129 292 C128.01 292 127.02 292 126 292 C125.67 292.99 125.34 293.98 125 295 C124.34 295 123.68 295 123 295 C122.67 295.99 122.34 296.98 122 298 C121.195625 298.12375 120.39125 298.2475 119.5625 298.375 C118.2940625 298.684375 118.2940625 298.684375 117 299 C116.67 299.66 116.34 300.32 116 301 C111.12328151 302.62557283 106.10618597 302.18452437 101 302.1875 C99.89398438 302.19974609 98.78796875 302.21199219 97.6484375 302.22460938 C96.58882812 302.22654297 95.52921875 302.22847656 94.4375 302.23046875 C93.46683594 302.23457764 92.49617187 302.23868652 91.49609375 302.24291992 C89 302 89 302 86 300 C86 299.34 86 298.68 86 298 C85.01 298 84.02 298 83 298 C83 297.01 83 296.02 83 295 C82.01 294.67 81.02 294.34 80 294 C77.79086 290.68629 77.77518447 289.6553979 77.875 285.8125 C77.89304688 284.91144531 77.91109375 284.01039063 77.9296875 283.08203125 C77.95289063 282.39496094 77.97609375 281.70789063 78 281 C77.01 280.67 76.02 280.34 75 280 C75 278.35 75 276.7 75 275 C75.99 274.67 76.98 274.34 78 274 C77.938125 272.741875 77.87625 271.48375 77.8125 270.1875 C77.80558899 266.28277965 77.80558899 266.28277965 79.375 264 C81 263 81 263 83 263 C83.33 261.02 83.66 259.04 84 257 C85.65 257 87.3 257 89 257 C89 256.34 89 255.68 89 255 C86.69 255 84.38 255 82 255 C81.67 254.01 81.34 253.02 81 252 C77.37 252 73.74 252 70 252 C69.67 251.01 69.34 250.02 69 249 C65.37 249 61.74 249 58 249 C57.67 248.34 57.34 247.68 57 247 C54.64400765 246.53248212 54.64400765 246.53248212 51.9375 246.375 C51.01839844 246.30023438 50.09929687 246.22546875 49.15234375 246.1484375 C48.08693359 246.07496094 48.08693359 246.07496094 47 246 C46.67 245.01 46.34 244.02 46 243 C43.36 243 40.72 243 38 243 C37.67 242.01 37.34 241.02 37 240 C34.36 240 31.72 240 29 240 C29 239.01 29 238.02 29 237 C27.02 237 25.04 237 23 237 C23 236.34 23 235.68 23 235 C21.88625 235.020625 20.7725 235.04125 19.625 235.0625 C16 235 16 235 14 234 C14 233.34 14 232.68 14 232 C12.88625 232.04125 11.7725 232.0825 10.625 232.125 C7 232 7 232 5 230 C3.35008418 229.29289322 1.68437744 228.62056011 0 228 C0 227.34 0 226.68 0 226 C-1.65 226 -3.3 226 -5 226 C-5.33 225.01 -5.66 224.02 -6 223 C-7.65 223 -9.3 223 -11 223 C-11.33 222.01 -11.66 221.02 -12 220 C-13.65 220 -15.3 220 -17 220 C-17.33 219.01 -17.66 218.02 -18 217 C-18.763125 217.061875 -19.52625 217.12375 -20.3125 217.1875 C-23 217 -23 217 -24.8125 215.6875 C-26 214 -26 214 -26 211 C-27.98 211 -29.96 211 -32 211 C-32 210.34 -32 209.68 -32 209 C-32.99 208.67 -33.98 208.34 -35 208 C-35 207.34 -35 206.68 -35 206 C-36.98 205.67 -38.96 205.34 -41 205 C-41 204.34 -41 203.68 -41 203 C-41.99 202.67 -42.98 202.34 -44 202 C-44 201.34 -44 200.68 -44 200 C-44.99 200 -45.98 200 -47 200 C-47 199.01 -47 198.02 -47 197 C-48.65 197 -50.3 197 -52 197 C-52 196.01 -52 195.02 -52 194 C-52.99 194 -53.98 194 -55 194 C-55 193.01 -55 192.02 -55 191 C-55.99 191 -56.98 191 -58 191 C-58 190.01 -58 189.02 -58 188 C-58.99 188 -59.98 188 -61 188 C-61 187.01 -61 186.02 -61 185 C-61.99 185 -62.98 185 -64 185 C-64 184.01 -64 183.02 -64 182 C-64.61875 181.690625 -65.2375 181.38125 -65.875 181.0625 C-67.25 180.375 -68.625 179.6875 -70 179 C-70 177.35 -70 175.7 -70 174 C-70.99 174 -71.98 174 -73 174 C-73 173.01 -73 172.02 -73 171 C-73.66 171 -74.32 171 -75 171 C-76.625 169.875 -76.625 169.875 -78 168 C-78.1875 164.8125 -78.1875 164.8125 -78 162 C-78.99 162 -79.98 162 -81 162 C-81.185625 160.7934375 -81.185625 160.7934375 -81.375 159.5625 C-81.58125 158.716875 -81.7875 157.87125 -82 157 C-82.66 156.67 -83.32 156.34 -84 156 C-84 154.35 -84 152.7 -84 151 C-84.99 151 -85.98 151 -87 151 C-87 149.02 -87 147.04 -87 145 C-87.99 144.67 -88.98 144.34 -90 144 C-90.89783896 137.86848211 -91.14656131 131.91865638 -91.1328125 125.7265625 C-91.13376923 124.76277679 -91.13472595 123.79899109 -91.13571167 122.80599976 C-91.13638889 120.77724136 -91.13456674 118.74848074 -91.13037109 116.71972656 C-91.12502816 113.64122564 -91.13032571 110.56287137 -91.13671875 107.484375 C-91.13605766 105.50260385 -91.13477586 103.52083279 -91.1328125 101.5390625 C-91.13483673 100.63145172 -91.13686096 99.72384094 -91.13894653 98.78872681 C-91.09324861 86.11288295 -91.09324861 86.11288295 -90 81 C-89.01 80.505 -89.01 80.505 -88 80 C-87.34444881 77.47266765 -87.34444881 77.47266765 -87 75 C-86.01 75 -85.02 75 -84 75 C-84 73.02 -84 71.04 -84 69 C-83.01 69 -82.02 69 -81 69 C-81 67.02 -81 65.04 -81 63 C-79.515 62.505 -79.515 62.505 -78 62 C-77.87625 61.236875 -77.7525 60.47375 -77.625 59.6875 C-77 57 -77 57 -75 54 C-74.34 54 -73.68 54 -73 54 C-73 53.34 -73 52.68 -73 52 C-72.01 52 -71.02 52 -70 52 C-70 50.02 -70 48.04 -70 46 C-69.01 46 -68.02 46 -67 46 C-67 45.01 -67 44.02 -67 43 C-66.01 43 -65.02 43 -64 43 C-64 42.01 -64 41.02 -64 40 C-62.125 37.8125 -62.125 37.8125 -60 36 C-59.34 36 -58.68 36 -58 36 C-57.67 35.01 -57.34 34.02 -57 33 C-53.24413757 29.47229743 -49.29540989 26.33096312 -44 26 C-44 25.01 -44 24.02 -44 23 C-43.01 23 -42.02 23 -41 23 C-41 22.01 -41 21.02 -41 20 C-39.02 20 -37.04 20 -35 20 C-34.67 18.68 -34.34 17.36 -34 16 C-33.34 16 -32.68 16 -32 16 C-32 15.34 -32 14.68 -32 14 C-30.02 13.67 -28.04 13.34 -26 13 C-25.67 12.01 -25.34 11.02 -25 10 C-24.34 10 -23.68 10 -23 10 C-23 9.34 -23 8.68 -23 8 C-20.29810266 6.65206012 -17.58972669 5.32164326 -14.875 4 C-13.73417969 3.42765625 -13.73417969 3.42765625 -12.5703125 2.84375 C-8.23347738 0.75010546 -4.93519955 -0.61497814 0 0 Z " fill="#000000" transform="translate(97,202)"/>
<path d="M0 0 C4.96223797 0.05003937 7.88316089 0.43434468 12.01171875 3.3984375 C13.43918671 4.14705322 14.87750506 4.87522675 16.32421875 5.5859375 C17.37029297 6.10220703 17.37029297 6.10220703 18.4375 6.62890625 C18.95699219 6.88285156 19.47648438 7.13679687 20.01171875 7.3984375 C20.01171875 8.0584375 20.01171875 8.7184375 20.01171875 9.3984375 C21.00171875 9.7284375 21.99171875 10.0584375 23.01171875 10.3984375 C23.01171875 11.0584375 23.01171875 11.7184375 23.01171875 12.3984375 C24.99171875 12.7284375 26.97171875 13.0584375 29.01171875 13.3984375 C29.01171875 14.0584375 29.01171875 14.7184375 29.01171875 15.3984375 C30.00171875 15.7284375 30.99171875 16.0584375 32.01171875 16.3984375 C32.01171875 17.3884375 32.01171875 18.3784375 32.01171875 19.3984375 C33.99171875 19.3984375 35.97171875 19.3984375 38.01171875 19.3984375 C38.01171875 20.3884375 38.01171875 21.3784375 38.01171875 22.3984375 C39.00171875 22.3984375 39.99171875 22.3984375 41.01171875 22.3984375 C41.01171875 23.3884375 41.01171875 24.3784375 41.01171875 25.3984375 C41.5634375 25.49253906 42.11515625 25.58664063 42.68359375 25.68359375 C45.6357744 26.5900519 47.73893219 28.06187268 50.26171875 29.8359375 C51.15375 30.45339844 52.04578125 31.07085937 52.96484375 31.70703125 C53.97804688 32.54427734 53.97804688 32.54427734 55.01171875 33.3984375 C55.01171875 34.0584375 55.01171875 34.7184375 55.01171875 35.3984375 C56.00171875 35.7284375 56.99171875 36.0584375 58.01171875 36.3984375 C59.69921875 37.7734375 59.69921875 37.7734375 61.01171875 39.3984375 C61.01171875 40.3884375 61.01171875 41.3784375 61.01171875 42.3984375 C62.00171875 42.3984375 62.99171875 42.3984375 64.01171875 42.3984375 C64.01171875 43.3884375 64.01171875 44.3784375 64.01171875 45.3984375 C65.00171875 45.3984375 65.99171875 45.3984375 67.01171875 45.3984375 C67.01171875 47.3784375 67.01171875 49.3584375 67.01171875 51.3984375 C68.00171875 51.3984375 68.99171875 51.3984375 70.01171875 51.3984375 C70.01171875 52.0584375 70.01171875 52.7184375 70.01171875 53.3984375 C71.00171875 53.7284375 71.99171875 54.0584375 73.01171875 54.3984375 C75.01171875 57.3984375 75.01171875 57.3984375 75.01171875 61.3984375 C76.00171875 61.7284375 76.99171875 62.0584375 78.01171875 62.3984375 C78.01171875 64.3784375 78.01171875 66.3584375 78.01171875 68.3984375 C79.00171875 68.3984375 79.99171875 68.3984375 81.01171875 68.3984375 C81.01171875 70.3784375 81.01171875 72.3584375 81.01171875 74.3984375 C82.00171875 74.3984375 82.99171875 74.3984375 84.01171875 74.3984375 C84.01171875 76.0484375 84.01171875 77.6984375 84.01171875 79.3984375 C85.00171875 79.7284375 85.99171875 80.0584375 87.01171875 80.3984375 C88.22778282 89.9607454 88.1643865 99.5209651 88.14208984 109.14111328 C88.13673069 111.89230866 88.14206106 114.64334083 88.1484375 117.39453125 C88.15139224 126.10746219 88.11300402 134.73867272 87.01171875 143.3984375 C86.02171875 143.7284375 85.03171875 144.0584375 84.01171875 144.3984375 C84.01171875 146.3784375 84.01171875 148.3584375 84.01171875 150.3984375 C83.02171875 150.3984375 82.03171875 150.3984375 81.01171875 150.3984375 C81.01171875 152.0484375 81.01171875 153.6984375 81.01171875 155.3984375 C80.35171875 155.7284375 79.69171875 156.0584375 79.01171875 156.3984375 C78.35616756 158.92576985 78.35616756 158.92576985 78.01171875 161.3984375 C77.02171875 161.3984375 76.03171875 161.3984375 75.01171875 161.3984375 C75.01171875 162.3884375 75.01171875 163.3784375 75.01171875 164.3984375 C74.35171875 164.3984375 73.69171875 164.3984375 73.01171875 164.3984375 C73.01171875 166.0484375 73.01171875 167.6984375 73.01171875 169.3984375 C72.02171875 169.7284375 71.03171875 170.0584375 70.01171875 170.3984375 C70.01171875 171.3884375 70.01171875 172.3784375 70.01171875 173.3984375 C69.02171875 173.3984375 68.03171875 173.3984375 67.01171875 173.3984375 C67.01171875 174.3884375 67.01171875 175.3784375 67.01171875 176.3984375 C66.02171875 176.3984375 65.03171875 176.3984375 64.01171875 176.3984375 C64.01171875 177.3884375 64.01171875 178.3784375 64.01171875 179.3984375 C63.02171875 179.3984375 62.03171875 179.3984375 61.01171875 179.3984375 C60.68171875 180.3884375 60.35171875 181.3784375 60.01171875 182.3984375 C59.35171875 182.3984375 58.69171875 182.3984375 58.01171875 182.3984375 C58.01171875 183.0584375 58.01171875 183.7184375 58.01171875 184.3984375 C57.02171875 184.3984375 56.03171875 184.3984375 55.01171875 184.3984375 C55.01171875 185.3884375 55.01171875 186.3784375 55.01171875 187.3984375 C54.02171875 187.3984375 53.03171875 187.3984375 52.01171875 187.3984375 C52.01171875 188.3884375 52.01171875 189.3784375 52.01171875 190.3984375 C51.02171875 190.3984375 50.03171875 190.3984375 49.01171875 190.3984375 C49.01171875 191.3884375 49.01171875 192.3784375 49.01171875 193.3984375 C48.35171875 193.3984375 47.69171875 193.3984375 47.01171875 193.3984375 C46.68171875 194.3884375 46.35171875 195.3784375 46.01171875 196.3984375 C45.35171875 196.3984375 44.69171875 196.3984375 44.01171875 196.3984375 C43.68171875 197.3884375 43.35171875 198.3784375 43.01171875 199.3984375 C42.35171875 199.3984375 41.69171875 199.3984375 41.01171875 199.3984375 C40.68171875 200.3884375 40.35171875 201.3784375 40.01171875 202.3984375 C38.36171875 202.3984375 36.71171875 202.3984375 35.01171875 202.3984375 C35.01171875 203.3884375 35.01171875 204.3784375 35.01171875 205.3984375 C34.02171875 205.3984375 33.03171875 205.3984375 32.01171875 205.3984375 C31.68171875 206.3884375 31.35171875 207.3784375 31.01171875 208.3984375 C29.36171875 208.3984375 27.71171875 208.3984375 26.01171875 208.3984375 C26.01171875 209.0584375 26.01171875 209.7184375 26.01171875 210.3984375 C25.02171875 210.3984375 24.03171875 210.3984375 23.01171875 210.3984375 C23.01171875 211.3884375 23.01171875 212.3784375 23.01171875 213.3984375 C21.36171875 213.3984375 19.71171875 213.3984375 18.01171875 213.3984375 C17.68171875 214.3884375 17.35171875 215.3784375 17.01171875 216.3984375 C15.36171875 216.3984375 13.71171875 216.3984375 12.01171875 216.3984375 C12.01171875 217.3884375 12.01171875 218.3784375 12.01171875 219.3984375 C10.03171875 219.3984375 8.05171875 219.3984375 6.01171875 219.3984375 C6.01171875 220.3884375 6.01171875 221.3784375 6.01171875 222.3984375 C4.03171875 222.3984375 2.05171875 222.3984375 0.01171875 222.3984375 C0.01171875 223.3884375 0.01171875 224.3784375 0.01171875 225.3984375 C-1.63828125 225.3984375 -3.28828125 225.3984375 -4.98828125 225.3984375 C-5.31828125 226.3884375 -5.64828125 227.3784375 -5.98828125 228.3984375 C-7.63828125 228.3984375 -9.28828125 228.3984375 -10.98828125 228.3984375 C-11.31828125 229.3884375 -11.64828125 230.3784375 -11.98828125 231.3984375 C-13.63828125 231.3984375 -15.28828125 231.3984375 -16.98828125 231.3984375 C-16.98828125 232.0584375 -16.98828125 232.7184375 -16.98828125 233.3984375 C-19.94492644 234.8767601 -22.73057862 234.45876533 -25.98828125 234.3984375 C-25.98828125 235.0584375 -25.98828125 235.7184375 -25.98828125 236.3984375 C-28.62828125 236.3984375 -31.26828125 236.3984375 -33.98828125 236.3984375 C-33.98828125 237.3884375 -33.98828125 238.3784375 -33.98828125 239.3984375 C-36.95828125 239.3984375 -39.92828125 239.3984375 -42.98828125 239.3984375 C-42.98828125 240.3884375 -42.98828125 241.3784375 -42.98828125 242.3984375 C-45.95828125 242.3984375 -48.92828125 242.3984375 -51.98828125 242.3984375 C-51.98828125 243.3884375 -51.98828125 244.3784375 -51.98828125 245.3984375 C-55.06445312 245.69140625 -55.06445312 245.69140625 -58.140625 245.984375 C-58.75035156 246.12101563 -59.36007812 246.25765625 -59.98828125 246.3984375 C-60.31828125 247.0584375 -60.64828125 247.7184375 -60.98828125 248.3984375 C-64.61828125 248.3984375 -68.24828125 248.3984375 -71.98828125 248.3984375 C-71.98828125 249.3884375 -71.98828125 250.3784375 -71.98828125 251.3984375 C-76.60828125 251.3984375 -81.22828125 251.3984375 -85.98828125 251.3984375 C-86.31828125 252.3884375 -86.64828125 253.3784375 -86.98828125 254.3984375 C-91.60828125 254.3984375 -96.22828125 254.3984375 -100.98828125 254.3984375 C-101.31828125 255.3884375 -101.64828125 256.3784375 -101.98828125 257.3984375 C-107.26828125 257.3984375 -112.54828125 257.3984375 -117.98828125 257.3984375 C-117.98828125 258.0584375 -117.98828125 258.7184375 -117.98828125 259.3984375 C-120.28119949 260.54489662 -121.75278484 260.58047176 -124.3046875 260.6796875 C-125.15095703 260.71707031 -125.99722656 260.75445312 -126.86914062 260.79296875 C-128.66080127 260.86343465 -130.45246797 260.93374648 -132.24414062 261.00390625 C-133.08912109 261.04128906 -133.93410156 261.07867187 -134.8046875 261.1171875 C-135.58271729 261.14748047 -136.36074707 261.17777344 -137.16235352 261.20898438 C-139.00638208 261.20641986 -139.00638208 261.20641986 -139.98828125 262.3984375 C-141.3681316 262.50680512 -142.75340514 262.54744062 -144.13745117 262.55957031 C-145.01894333 262.56917786 -145.90043549 262.5787854 -146.80863953 262.58868408 C-147.76897598 262.59293396 -148.72931244 262.59718384 -149.71875 262.6015625 C-150.70192703 262.60726257 -151.68510406 262.61296265 -152.69807434 262.61883545 C-154.78544025 262.62830416 -156.87282123 262.63482682 -158.96020508 262.63867188 C-162.14496299 262.64834391 -165.32906654 262.67933587 -168.51367188 262.7109375 C-170.54036075 262.71747065 -172.56705424 262.72271989 -174.59375 262.7265625 C-176.01907295 262.7450827 -176.01907295 262.7450827 -177.47319031 262.76397705 C-182.76112767 262.74629015 -186.3776514 262.30073488 -190.98828125 259.3984375 C-190.98828125 258.7384375 -190.98828125 258.0784375 -190.98828125 257.3984375 C-191.97828125 257.3984375 -192.96828125 257.3984375 -193.98828125 257.3984375 C-194.31828125 255.4184375 -194.64828125 253.4384375 -194.98828125 251.3984375 C-195.97828125 251.0684375 -196.96828125 250.7384375 -197.98828125 250.3984375 C-197.98828125 242.1484375 -197.98828125 233.8984375 -197.98828125 225.3984375 C-196.99828125 225.0684375 -196.00828125 224.7384375 -194.98828125 224.3984375 C-194.98828125 223.4084375 -194.98828125 222.4184375 -194.98828125 221.3984375 C-193.99828125 221.3984375 -193.00828125 221.3984375 -191.98828125 221.3984375 C-191.65828125 220.4084375 -191.32828125 219.4184375 -190.98828125 218.3984375 C-189.99828125 218.3984375 -189.00828125 218.3984375 -187.98828125 218.3984375 C-187.98828125 217.4084375 -187.98828125 216.4184375 -187.98828125 215.3984375 C-181.14212506 212.4940076 -174.80195976 211.10475823 -167.42578125 210.8359375 C-161.70963397 210.60834019 -161.70963397 210.60834019 -156.0390625 209.90234375 C-151.14717884 209.09433736 -146.21770307 209.00436217 -141.26953125 208.79296875 C-136.99286574 208.7006037 -136.99286574 208.7006037 -132.98828125 207.3984375 C-130.10457792 207.32648881 -127.24588461 207.30552042 -124.36328125 207.3359375 C-123.16058594 207.34270508 -123.16058594 207.34270508 -121.93359375 207.34960938 C-119.95179119 207.36140582 -117.97002692 207.37934145 -115.98828125 207.3984375 C-115.98828125 206.4084375 -115.98828125 205.4184375 -115.98828125 204.3984375 C-114.84488281 204.34945312 -113.70148438 204.30046875 -112.5234375 204.25 C-111.03252652 204.17498561 -109.54164233 204.09943722 -108.05078125 204.0234375 C-106.91866211 203.97703125 -106.91866211 203.97703125 -105.76367188 203.9296875 C-103.8332073 203.825806 -101.90886044 203.61948136 -99.98828125 203.3984375 C-99.65828125 202.7384375 -99.32828125 202.0784375 -98.98828125 201.3984375 C-95.02828125 201.3984375 -91.06828125 201.3984375 -86.98828125 201.3984375 C-86.98828125 200.4084375 -86.98828125 199.4184375 -86.98828125 198.3984375 C-83.35828125 198.3984375 -79.72828125 198.3984375 -75.98828125 198.3984375 C-75.98828125 197.4084375 -75.98828125 196.4184375 -75.98828125 195.3984375 C-73.01828125 195.3984375 -70.04828125 195.3984375 -66.98828125 195.3984375 C-66.98828125 194.4084375 -66.98828125 193.4184375 -66.98828125 192.3984375 C-64.01828125 192.3984375 -61.04828125 192.3984375 -57.98828125 192.3984375 C-57.98828125 191.4084375 -57.98828125 190.4184375 -57.98828125 189.3984375 C-56.31765625 189.2128125 -56.31765625 189.2128125 -54.61328125 189.0234375 C-50.95724448 188.7518562 -50.95724448 188.7518562 -48.98828125 186.3984375 C-47.19789657 185.78763334 -45.38029824 185.25450571 -43.55078125 184.7734375 C-42.58269531 184.51304687 -41.61460937 184.25265625 -40.6171875 183.984375 C-37.98828125 183.3984375 -37.98828125 183.3984375 -34.98828125 183.3984375 C-34.98828125 182.7384375 -34.98828125 182.0784375 -34.98828125 181.3984375 C-34.18390625 181.2746875 -33.37953125 181.1509375 -32.55078125 181.0234375 C-31.70515625 180.8171875 -30.85953125 180.6109375 -29.98828125 180.3984375 C-29.65828125 179.7384375 -29.32828125 179.0784375 -28.98828125 178.3984375 C-27.33828125 178.3984375 -25.68828125 178.3984375 -23.98828125 178.3984375 C-23.98828125 177.4084375 -23.98828125 176.4184375 -23.98828125 175.3984375 C-21.01828125 175.3984375 -18.04828125 175.3984375 -14.98828125 175.3984375 C-14.98828125 174.4084375 -14.98828125 173.4184375 -14.98828125 172.3984375 C-13.99828125 172.3984375 -13.00828125 172.3984375 -11.98828125 172.3984375 C-11.98828125 171.4084375 -11.98828125 170.4184375 -11.98828125 169.3984375 C-10.00828125 169.3984375 -8.02828125 169.3984375 -5.98828125 169.3984375 C-5.98828125 168.4084375 -5.98828125 167.4184375 -5.98828125 166.3984375 C-5.43140625 166.3365625 -4.87453125 166.2746875 -4.30078125 166.2109375 C-1.05989345 165.07224719 0.64295905 162.82953298 3.01171875 160.3984375 C3.67171875 160.3984375 4.33171875 160.3984375 5.01171875 160.3984375 C5.01171875 159.7384375 5.01171875 159.0784375 5.01171875 158.3984375 C10.63671875 155.3984375 10.63671875 155.3984375 14.01171875 155.3984375 C14.01171875 154.4084375 14.01171875 153.4184375 14.01171875 152.3984375 C15.00171875 152.3984375 15.99171875 152.3984375 17.01171875 152.3984375 C17.01171875 151.4084375 17.01171875 150.4184375 17.01171875 149.3984375 C18.00171875 149.3984375 18.99171875 149.3984375 20.01171875 149.3984375 C20.01171875 148.4084375 20.01171875 147.4184375 20.01171875 146.3984375 C21.38671875 144.7109375 21.38671875 144.7109375 23.01171875 143.3984375 C23.67171875 143.3984375 24.33171875 143.3984375 25.01171875 143.3984375 C25.34171875 142.4084375 25.67171875 141.4184375 26.01171875 140.3984375 C26.67171875 140.3984375 27.33171875 140.3984375 28.01171875 140.3984375 C28.34171875 139.0784375 28.67171875 137.7584375 29.01171875 136.3984375 C29.67171875 136.3984375 30.33171875 136.3984375 31.01171875 136.3984375 C31.34171875 134.7484375 31.67171875 133.0984375 32.01171875 131.3984375 C32.67171875 131.3984375 33.33171875 131.3984375 34.01171875 131.3984375 C34.01171875 129.7484375 34.01171875 128.0984375 34.01171875 126.3984375 C35.00171875 126.3984375 35.99171875 126.3984375 37.01171875 126.3984375 C37.01171875 124.4184375 37.01171875 122.4384375 37.01171875 120.3984375 C38.00171875 120.3984375 38.99171875 120.3984375 40.01171875 120.3984375 C40.01171875 115.7784375 40.01171875 111.1584375 40.01171875 106.3984375 C39.02171875 106.0684375 38.03171875 105.7384375 37.01171875 105.3984375 C37.01171875 103.0884375 37.01171875 100.7784375 37.01171875 98.3984375 C36.02171875 98.0684375 35.03171875 97.7384375 34.01171875 97.3984375 C34.01171875 95.7484375 34.01171875 94.0984375 34.01171875 92.3984375 C33.02171875 92.0684375 32.03171875 91.7384375 31.01171875 91.3984375 C31.01171875 89.7484375 31.01171875 88.0984375 31.01171875 86.3984375 C30.02171875 86.3984375 29.03171875 86.3984375 28.01171875 86.3984375 C28.01171875 85.4084375 28.01171875 84.4184375 28.01171875 83.3984375 C27.02171875 83.0684375 26.03171875 82.7384375 25.01171875 82.3984375 C25.01171875 81.7384375 25.01171875 81.0784375 25.01171875 80.3984375 C24.35171875 80.3984375 23.69171875 80.3984375 23.01171875 80.3984375 C23.01171875 79.4084375 23.01171875 78.4184375 23.01171875 77.3984375 C22.02171875 77.3984375 21.03171875 77.3984375 20.01171875 77.3984375 C18.32421875 76.0234375 18.32421875 76.0234375 17.01171875 74.3984375 C17.01171875 73.7384375 17.01171875 73.0784375 17.01171875 72.3984375 C16.02171875 72.0684375 15.03171875 71.7384375 14.01171875 71.3984375 C14.01171875 70.7384375 14.01171875 70.0784375 14.01171875 69.3984375 C13.02171875 69.0684375 12.03171875 68.7384375 11.01171875 68.3984375 C11.01171875 67.7384375 11.01171875 67.0784375 11.01171875 66.3984375 C10.02171875 66.3984375 9.03171875 66.3984375 8.01171875 66.3984375 C8.01171875 65.4084375 8.01171875 64.4184375 8.01171875 63.3984375 C6.36171875 63.3984375 4.71171875 63.3984375 3.01171875 63.3984375 C2.68171875 62.4084375 2.35171875 61.4184375 2.01171875 60.3984375 C1.02171875 60.0684375 0.03171875 59.7384375 -0.98828125 59.3984375 C-0.98828125 58.7384375 -0.98828125 58.0784375 -0.98828125 57.3984375 C-2.63828125 57.3984375 -4.28828125 57.3984375 -5.98828125 57.3984375 C-5.98828125 56.4084375 -5.98828125 55.4184375 -5.98828125 54.3984375 C-6.97828125 54.3984375 -7.96828125 54.3984375 -8.98828125 54.3984375 C-9.31828125 53.7384375 -9.64828125 53.0784375 -9.98828125 52.3984375 C-11.63828125 51.7384375 -13.28828125 51.0784375 -14.98828125 50.3984375 C-14.98828125 46.7684375 -14.98828125 43.1384375 -14.98828125 39.3984375 C-13.99828125 39.3984375 -13.00828125 39.3984375 -11.98828125 39.3984375 C-11.65828125 38.0784375 -11.32828125 36.7584375 -10.98828125 35.3984375 C-10.32828125 35.3984375 -9.66828125 35.3984375 -8.98828125 35.3984375 C-8.98828125 34.4084375 -8.98828125 33.4184375 -8.98828125 32.3984375 C-7.99828125 32.3984375 -7.00828125 32.3984375 -5.98828125 32.3984375 C-5.98828125 30.0884375 -5.98828125 27.7784375 -5.98828125 25.3984375 C-5.32828125 25.3984375 -4.66828125 25.3984375 -3.98828125 25.3984375 C-3.99875488 24.74770264 -4.00922852 24.09696777 -4.02001953 23.42651367 C-4.0615796 20.4796942 -4.08760733 17.53293639 -4.11328125 14.5859375 C-4.13003906 13.56177734 -4.14679688 12.53761719 -4.1640625 11.48242188 C-4.17050781 10.49951172 -4.17695313 9.51660156 -4.18359375 8.50390625 C-4.19406738 7.59793701 -4.20454102 6.69196777 -4.21533203 5.75854492 C-3.91758119 2.66353702 -3.2523559 0.65174912 0 0 Z " fill="#000000" transform="translate(496.98828125,202.6015625)"/>
<path d="M0 0 C1.32 0 2.64 0 4 0 C4 4.95 4 9.9 4 15 C3.34 15 2.68 15 2 15 C1.46467177 13.44240657 0.94734622 11.87861955 0.4375 10.3125 C0.14746094 9.44238281 -0.14257812 8.57226562 -0.44140625 7.67578125 C-1.05141961 4.75368926 -0.77703633 2.85599447 0 0 Z " fill="#000000" transform="translate(157,85)"/>
<path d="" fill="#000000" transform="translate(0,0)"/>
</svg>
