<?xml version="1.0" encoding="UTF-8"?>
<svg version="1.1" xmlns="http://www.w3.org/2000/svg" width="591" height="591">
<path d="M0 0 C1.262108 -0.00642769 1.262108 -0.00642769 2.54971313 -0.01298523 C4.32984523 -0.01871247 6.11000072 -0.01924066 7.89013672 -0.01489258 C10.55869825 -0.01176892 13.2261095 -0.03508389 15.89453125 -0.06054688 C29.90470221 -0.11325712 43.20240919 0.78107365 55.94921875 7.1640625 C58.62899456 8.50165214 61.36753847 9.42108155 64.2265625 10.30078125 C65.2165625 10.79578125 65.2165625 10.79578125 66.2265625 11.30078125 C66.2265625 11.96078125 66.2265625 12.62078125 66.2265625 13.30078125 C67.33644531 13.48447266 67.33644531 13.48447266 68.46875 13.671875 C76.15623674 15.42497042 82.6422365 20.9110341 88.84375 25.53125 C90.6023458 26.8372236 92.40396849 28.08571857 94.2265625 29.30078125 C94.2265625 29.96078125 94.2265625 30.62078125 94.2265625 31.30078125 C94.80921875 31.56632812 95.391875 31.831875 95.9921875 32.10546875 C102.82833599 35.76256917 109.19042448 42.47439817 114.2265625 48.30078125 C114.2265625 48.96078125 114.2265625 49.62078125 114.2265625 50.30078125 C114.8865625 50.30078125 115.5465625 50.30078125 116.2265625 50.30078125 C116.2265625 50.96078125 116.2265625 51.62078125 116.2265625 52.30078125 C116.8865625 52.30078125 117.5465625 52.30078125 118.2265625 52.30078125 C119.2165625 54.77578125 119.2165625 54.77578125 120.2265625 57.30078125 C120.8865625 57.30078125 121.5465625 57.30078125 122.2265625 57.30078125 C123.2165625 59.77578125 123.2165625 59.77578125 124.2265625 62.30078125 C124.8865625 62.30078125 125.5465625 62.30078125 126.2265625 62.30078125 C128.2265625 65.30078125 128.2265625 65.30078125 128.2265625 68.30078125 C128.8865625 68.30078125 129.5465625 68.30078125 130.2265625 68.30078125 C131.69617716 71.24001058 131.43576112 73.90487097 131.4765625 77.17578125 C131.51523437 79.02816406 131.51523437 79.02816406 131.5546875 80.91796875 C131.21198738 84.45104375 130.75319677 85.86000348 128.2265625 88.30078125 C127.5665625 88.30078125 126.9065625 88.30078125 126.2265625 88.30078125 C126.2265625 89.29078125 126.2265625 90.28078125 126.2265625 91.30078125 C125.5665625 91.30078125 124.9065625 91.30078125 124.2265625 91.30078125 C124.2265625 91.96078125 124.2265625 92.62078125 124.2265625 93.30078125 C123.5665625 93.30078125 122.9065625 93.30078125 122.2265625 93.30078125 C121.8553125 94.14382813 121.8553125 94.14382813 121.4765625 95.00390625 C120.01381383 97.69170694 118.25851377 99.76483607 116.2265625 102.05078125 C115.5253125 102.85 114.8240625 103.64921875 114.1015625 104.47265625 C112.2265625 106.30078125 112.2265625 106.30078125 110.2265625 106.30078125 C110.2265625 106.96078125 110.2265625 107.62078125 110.2265625 108.30078125 C109.5665625 108.30078125 108.9065625 108.30078125 108.2265625 108.30078125 C108.2265625 108.96078125 108.2265625 109.62078125 108.2265625 110.30078125 C106.82493481 111.5355485 105.41444207 112.76226813 103.953125 113.92578125 C102.25354354 115.27929409 100.61795822 116.69019925 98.9765625 118.11328125 C96.2265625 120.30078125 96.2265625 120.30078125 94.2265625 120.30078125 C94.2265625 120.96078125 94.2265625 121.62078125 94.2265625 122.30078125 C93.5665625 122.30078125 92.9065625 122.30078125 92.2265625 122.30078125 C92.2265625 122.96078125 92.2265625 123.62078125 92.2265625 124.30078125 C89.2265625 126.30078125 89.2265625 126.30078125 86.2265625 126.30078125 C86.2265625 126.96078125 86.2265625 127.62078125 86.2265625 128.30078125 C80.32621659 132.86410296 74.14452808 136.56241988 67.2265625 139.30078125 C66.5871875 139.79578125 65.9478125 140.29078125 65.2890625 140.80078125 C62.67480532 142.7020592 59.97400187 143.60314911 56.93359375 144.65234375 C55.22142289 145.16927941 55.22142289 145.16927941 54.2265625 146.30078125 C52.56039135 146.34141957 50.89268155 146.34350225 49.2265625 146.30078125 C49.2265625 146.96078125 49.2265625 147.62078125 49.2265625 148.30078125 C38.2919022 150.79873276 27.91343282 151.72786592 16.70581055 151.58203125 C14.26660937 151.55049092 11.82805835 151.54099968 9.38867188 151.53515625 C-10.66417426 151.43709895 -10.66417426 151.43709895 -18.75 148.11328125 C-20.85743582 147.26705219 -22.97901013 146.59563952 -25.1484375 145.92578125 C-30.21742865 144.24789219 -35.28674488 142.22069232 -39.7734375 139.30078125 C-40.1034375 138.31078125 -40.4334375 137.32078125 -40.7734375 136.30078125 C-41.47210938 136.20667969 -42.17078125 136.11257813 -42.890625 136.015625 C-46.33759823 135.16088774 -48.8602101 133.69459375 -51.8984375 131.86328125 C-52.93226563 131.24582031 -53.96609375 130.62835938 -55.03125 129.9921875 C-56.96792646 128.7976278 -58.88014575 127.56297575 -60.7734375 126.30078125 C-60.7734375 125.64078125 -60.7734375 124.98078125 -60.7734375 124.30078125 C-61.34578125 124.03265625 -61.918125 123.76453125 -62.5078125 123.48828125 C-64.85228384 122.25945489 -66.89748688 120.87555949 -69.0234375 119.30078125 C-69.72984375 118.78515625 -70.43625 118.26953125 -71.1640625 117.73828125 C-71.69515625 117.26390625 -72.22625 116.78953125 -72.7734375 116.30078125 C-72.7734375 115.64078125 -72.7734375 114.98078125 -72.7734375 114.30078125 C-73.4334375 114.30078125 -74.0934375 114.30078125 -74.7734375 114.30078125 C-74.7734375 113.64078125 -74.7734375 112.98078125 -74.7734375 112.30078125 C-75.3921875 111.99140625 -76.0109375 111.68203125 -76.6484375 111.36328125 C-78.0234375 110.67578125 -79.3984375 109.98828125 -80.7734375 109.30078125 C-80.7734375 108.64078125 -80.7734375 107.98078125 -80.7734375 107.30078125 C-81.4334375 107.30078125 -82.0934375 107.30078125 -82.7734375 107.30078125 C-82.7734375 106.64078125 -82.7734375 105.98078125 -82.7734375 105.30078125 C-83.4334375 105.30078125 -84.0934375 105.30078125 -84.7734375 105.30078125 C-84.7734375 104.64078125 -84.7734375 103.98078125 -84.7734375 103.30078125 C-85.4334375 103.30078125 -86.0934375 103.30078125 -86.7734375 103.30078125 C-86.7734375 102.64078125 -86.7734375 101.98078125 -86.7734375 101.30078125 C-87.4334375 101.30078125 -88.0934375 101.30078125 -88.7734375 101.30078125 C-92.7734375 96.83019301 -92.7734375 96.83019301 -92.7734375 94.30078125 C-93.4334375 94.30078125 -94.0934375 94.30078125 -94.7734375 94.30078125 C-99.05108788 90.30882232 -103.22122249 86.04805091 -104.3984375 80.19140625 C-104.3984375 76.61411881 -104.3888345 73.53157524 -102.7734375 70.30078125 C-102.1134375 70.30078125 -101.4534375 70.30078125 -100.7734375 70.30078125 C-100.6290625 69.68203125 -100.4846875 69.06328125 -100.3359375 68.42578125 C-99.7734375 66.30078125 -99.7734375 66.30078125 -98.7734375 64.30078125 C-98.1134375 64.30078125 -97.4534375 64.30078125 -96.7734375 64.30078125 C-96.7734375 63.64078125 -96.7734375 62.98078125 -96.7734375 62.30078125 C-96.1134375 62.30078125 -95.4534375 62.30078125 -94.7734375 62.30078125 C-94.7734375 61.31078125 -94.7734375 60.32078125 -94.7734375 59.30078125 C-94.1134375 59.30078125 -93.4534375 59.30078125 -92.7734375 59.30078125 C-92.1134375 57.65078125 -91.4534375 56.00078125 -90.7734375 54.30078125 C-90.1134375 54.30078125 -89.4534375 54.30078125 -88.7734375 54.30078125 C-88.5259375 53.74390625 -88.2784375 53.18703125 -88.0234375 52.61328125 C-86.54418932 49.87667212 -84.83876311 47.62427256 -82.7734375 45.30078125 C-82.1134375 45.30078125 -81.4534375 45.30078125 -80.7734375 45.30078125 C-80.7734375 44.64078125 -80.7734375 43.98078125 -80.7734375 43.30078125 C-80.1134375 43.30078125 -79.4534375 43.30078125 -78.7734375 43.30078125 C-78.1134375 41.98078125 -77.4534375 40.66078125 -76.7734375 39.30078125 C-76.1134375 39.30078125 -75.4534375 39.30078125 -74.7734375 39.30078125 C-74.7734375 38.64078125 -74.7734375 37.98078125 -74.7734375 37.30078125 C-74.1134375 37.30078125 -73.4534375 37.30078125 -72.7734375 37.30078125 C-72.7734375 36.64078125 -72.7734375 35.98078125 -72.7734375 35.30078125 C-71.34765625 33.79296875 -71.34765625 33.79296875 -69.4609375 32.17578125 C-68.84605469 31.63695312 -68.23117188 31.098125 -67.59765625 30.54296875 C-65.7734375 29.30078125 -65.7734375 29.30078125 -62.7734375 29.30078125 C-62.7734375 28.64078125 -62.7734375 27.98078125 -62.7734375 27.30078125 C-61.34875613 26.11354678 -59.91905114 24.93182091 -58.46459961 23.78125 C-56.75026394 22.28049476 -55.47717637 20.72797214 -54.08984375 18.92578125 C-50.71869288 14.93327074 -46.97195582 12.78784471 -42.3359375 10.48828125 C-41.61083984 10.10736328 -40.88574219 9.72644531 -40.13867188 9.33398438 C-32.9065648 5.62371201 -25.73986472 4.04091246 -17.73828125 2.86328125 C-14.77998734 2.39386843 -14.77998734 2.39386843 -12.13647461 1.28442383 C-7.99531199 0.07319013 -4.28932603 -0.00492488 0 0 Z M5.2265625 47.30078125 C5.2265625 47.96078125 5.2265625 48.62078125 5.2265625 49.30078125 C3.9065625 49.30078125 2.5865625 49.30078125 1.2265625 49.30078125 C1.2265625 49.96078125 1.2265625 50.62078125 1.2265625 51.30078125 C0.6078125 51.44515625 -0.0109375 51.58953125 -0.6484375 51.73828125 C-2.80602072 52.2323035 -2.80602072 52.2323035 -4.7734375 53.30078125 C-4.7734375 53.96078125 -4.7734375 54.62078125 -4.7734375 55.30078125 C-5.4334375 55.30078125 -6.0934375 55.30078125 -6.7734375 55.30078125 C-7.4334375 57.28078125 -8.0934375 59.26078125 -8.7734375 61.30078125 C-9.4334375 61.30078125 -10.0934375 61.30078125 -10.7734375 61.30078125 C-10.7734375 63.28078125 -10.7734375 65.26078125 -10.7734375 67.30078125 C-11.4334375 67.30078125 -12.0934375 67.30078125 -12.7734375 67.30078125 C-12.7734375 70.93078125 -12.7734375 74.56078125 -12.7734375 78.30078125 C-12.1134375 78.30078125 -11.4534375 78.30078125 -10.7734375 78.30078125 C-10.7734375 80.28078125 -10.7734375 82.26078125 -10.7734375 84.30078125 C-10.1134375 84.30078125 -9.4534375 84.30078125 -8.7734375 84.30078125 C-8.7734375 85.62078125 -8.7734375 86.94078125 -8.7734375 88.30078125 C-8.1134375 88.30078125 -7.4534375 88.30078125 -6.7734375 88.30078125 C-6.7734375 88.96078125 -6.7734375 89.62078125 -6.7734375 90.30078125 C-6.1134375 90.30078125 -5.4534375 90.30078125 -4.7734375 90.30078125 C-4.7734375 90.96078125 -4.7734375 91.62078125 -4.7734375 92.30078125 C-4.1134375 92.30078125 -3.4534375 92.30078125 -2.7734375 92.30078125 C-2.7734375 92.96078125 -2.7734375 93.62078125 -2.7734375 94.30078125 C-2.1134375 94.30078125 -1.4534375 94.30078125 -0.7734375 94.30078125 C-0.7734375 94.96078125 -0.7734375 95.62078125 -0.7734375 96.30078125 C1.2065625 96.30078125 3.1865625 96.30078125 5.2265625 96.30078125 C5.2265625 96.96078125 5.2265625 97.62078125 5.2265625 98.30078125 C6.3403125 98.44515625 7.4540625 98.58953125 8.6015625 98.73828125 C12.2265625 99.30078125 12.2265625 99.30078125 14.2265625 100.30078125 C16.39377183 99.77845783 18.53809595 99.1590154 20.6640625 98.48828125 C22.39462891 97.95267578 22.39462891 97.95267578 24.16015625 97.40625 C27.3398502 96.39833013 27.3398502 96.39833013 30.2265625 94.30078125 C30.2265625 93.64078125 30.2265625 92.98078125 30.2265625 92.30078125 C30.8865625 92.30078125 31.5465625 92.30078125 32.2265625 92.30078125 C32.2265625 91.64078125 32.2265625 90.98078125 32.2265625 90.30078125 C32.8865625 90.30078125 33.5465625 90.30078125 34.2265625 90.30078125 C36.5039126 87.48568132 36.5039126 87.48568132 36.2265625 84.30078125 C36.8865625 84.30078125 37.5465625 84.30078125 38.2265625 84.30078125 C40.66720837 78.65678767 40.41945349 73.32326647 40.2265625 67.30078125 C39.5665625 67.30078125 38.9065625 67.30078125 38.2265625 67.30078125 C38.2265625 65.32078125 38.2265625 63.34078125 38.2265625 61.30078125 C37.5665625 61.30078125 36.9065625 61.30078125 36.2265625 61.30078125 C36.0821875 60.68203125 35.9378125 60.06328125 35.7890625 59.42578125 C35.29504025 57.26819803 35.29504025 57.26819803 34.2265625 55.30078125 C33.5665625 55.30078125 32.9065625 55.30078125 32.2265625 55.30078125 C32.2265625 54.64078125 32.2265625 53.98078125 32.2265625 53.30078125 C31.5665625 53.30078125 30.9065625 53.30078125 30.2265625 53.30078125 C30.2265625 52.64078125 30.2265625 51.98078125 30.2265625 51.30078125 C28.9065625 51.30078125 27.5865625 51.30078125 26.2265625 51.30078125 C26.2265625 50.64078125 26.2265625 49.98078125 26.2265625 49.30078125 C24.9065625 49.30078125 23.5865625 49.30078125 22.2265625 49.30078125 C22.2265625 48.64078125 22.2265625 47.98078125 22.2265625 47.30078125 C16.6165625 47.30078125 11.0065625 47.30078125 5.2265625 47.30078125 Z " fill="#000000" transform="translate(282.7734375,225.69921875)"/>
<path d="M0 0 C0.89847656 0.00257813 1.79695313 0.00515625 2.72265625 0.0078125 C3.61855469 0.00523437 4.51445313 0.00265625 5.4375 0 C7.78515625 0.1328125 7.78515625 0.1328125 9.78515625 1.1328125 C9.78515625 1.7928125 9.78515625 2.4528125 9.78515625 3.1328125 C10.44515625 3.1328125 11.10515625 3.1328125 11.78515625 3.1328125 C11.78515625 3.7928125 11.78515625 4.4528125 11.78515625 5.1328125 C12.44515625 5.1328125 13.10515625 5.1328125 13.78515625 5.1328125 C13.78515625 5.7928125 13.78515625 6.4528125 13.78515625 7.1328125 C14.44515625 7.1328125 15.10515625 7.1328125 15.78515625 7.1328125 C15.78515625 7.7928125 15.78515625 8.4528125 15.78515625 9.1328125 C16.44515625 9.1328125 17.10515625 9.1328125 17.78515625 9.1328125 C17.78515625 9.7928125 17.78515625 10.4528125 17.78515625 11.1328125 C18.44515625 11.1328125 19.10515625 11.1328125 19.78515625 11.1328125 C19.78515625 12.1228125 19.78515625 13.1128125 19.78515625 14.1328125 C21.10515625 14.4628125 22.42515625 14.7928125 23.78515625 15.1328125 C23.78515625 15.7928125 23.78515625 16.4528125 23.78515625 17.1328125 C24.44515625 17.1328125 25.10515625 17.1328125 25.78515625 17.1328125 C25.78515625 17.7928125 25.78515625 18.4528125 25.78515625 19.1328125 C26.44515625 19.1328125 27.10515625 19.1328125 27.78515625 19.1328125 C27.78515625 19.7928125 27.78515625 20.4528125 27.78515625 21.1328125 C28.44515625 21.1328125 29.10515625 21.1328125 29.78515625 21.1328125 C29.78515625 21.7928125 29.78515625 22.4528125 29.78515625 23.1328125 C30.44515625 23.1328125 31.10515625 23.1328125 31.78515625 23.1328125 C31.78515625 23.7928125 31.78515625 24.4528125 31.78515625 25.1328125 C32.44515625 25.1328125 33.10515625 25.1328125 33.78515625 25.1328125 C34.96463359 29.26098318 34.70135056 31.31166255 32.78515625 35.1328125 C30.5078125 37.80859375 30.5078125 37.80859375 27.84765625 40.4453125 C26.97238281 41.32832031 26.09710938 42.21132813 25.1953125 43.12109375 C22.78515625 45.1328125 22.78515625 45.1328125 19.78515625 45.1328125 C19.78515625 45.7928125 19.78515625 46.4528125 19.78515625 47.1328125 C19.12515625 47.1328125 18.46515625 47.1328125 17.78515625 47.1328125 C17.72328125 47.6896875 17.66140625 48.2465625 17.59765625 48.8203125 C16.4567748 52.06743663 14.23555903 53.77620504 11.78515625 56.1328125 C12.67607468 56.12170944 13.5669931 56.11060638 14.48490906 56.09916687 C22.88618557 55.99892895 31.2872609 55.92282935 39.68899822 55.87375164 C44.00833865 55.84767168 48.32718447 55.8123038 52.64624023 55.75561523 C56.81543135 55.70123693 60.98414713 55.67137991 65.15366554 55.65842628 C66.74331965 55.64919671 68.33294811 55.63117293 69.92239952 55.60416222 C72.1515535 55.56779155 74.37875073 55.56287005 76.6081543 55.56518555 C77.8761235 55.55408249 79.14409271 55.54297943 80.45048523 55.53153992 C84.71321318 56.3001499 86.17813744 57.73163732 88.78515625 61.1328125 C89.40661621 63.23245239 89.40661621 63.23245239 89.40039062 65.32470703 C89.41434875 66.51086105 89.41434875 66.51086105 89.42858887 67.72097778 C89.40399597 68.98057816 89.40399597 68.98057816 89.37890625 70.265625 C89.37894653 71.13927704 89.37898682 72.01292908 89.37902832 72.91305542 C89.37368121 74.75379661 89.35613302 76.59453785 89.32714844 78.43505859 C89.28518932 81.2555896 89.28608997 84.07373989 89.29296875 86.89453125 C89.28247937 88.68491245 89.26954262 90.47528135 89.25390625 92.265625 C89.25370483 93.10940704 89.25350342 93.95318909 89.2532959 94.82254028 C89.13668142 100.57170773 89.13668142 100.57170773 87.70475769 102.85734558 C84.74018905 104.82713429 82.17875763 104.49135376 78.65161133 104.47338867 C77.56830788 104.47404579 77.56830788 104.47404579 76.46311951 104.47471619 C74.0767002 104.47262664 71.69098402 104.44928863 69.3046875 104.42578125 C67.64988082 104.42018586 65.99506917 104.4159155 64.34025574 104.41291809 C59.98522211 104.40146474 55.63048874 104.37199348 51.27557373 104.33880615 C46.8315436 104.30811576 42.38746494 104.29441497 37.94335938 104.27929688 C29.22382056 104.24712412 20.50452576 104.19592202 11.78515625 104.1328125 C11.78515625 104.7928125 11.78515625 105.4528125 11.78515625 106.1328125 C12.44515625 106.1328125 13.10515625 106.1328125 13.78515625 106.1328125 C13.78515625 106.7928125 13.78515625 107.4528125 13.78515625 108.1328125 C14.44515625 108.1328125 15.10515625 108.1328125 15.78515625 108.1328125 C17.78515625 111.1328125 17.78515625 111.1328125 17.78515625 114.1328125 C18.44515625 114.1328125 19.10515625 114.1328125 19.78515625 114.1328125 C19.78515625 114.7928125 19.78515625 115.4528125 19.78515625 116.1328125 C20.65140625 116.5040625 20.65140625 116.5040625 21.53515625 116.8828125 C24.11455604 118.31581238 25.84637217 119.91705926 27.78515625 122.1328125 C27.78515625 122.7928125 27.78515625 123.4528125 27.78515625 124.1328125 C28.44515625 124.1328125 29.10515625 124.1328125 29.78515625 124.1328125 C29.78515625 124.7928125 29.78515625 125.4528125 29.78515625 126.1328125 C30.42453125 126.3596875 31.06390625 126.5865625 31.72265625 126.8203125 C33.78515625 128.1328125 33.78515625 128.1328125 34.59765625 130.5078125 C34.77771264 133.02860201 34.57836878 134.7531749 33.78515625 137.1328125 C33.12515625 137.1328125 32.46515625 137.1328125 31.78515625 137.1328125 C31.78515625 137.7928125 31.78515625 138.4528125 31.78515625 139.1328125 C31.12515625 139.1328125 30.46515625 139.1328125 29.78515625 139.1328125 C29.78515625 139.7928125 29.78515625 140.4528125 29.78515625 141.1328125 C29.12515625 141.1328125 28.46515625 141.1328125 27.78515625 141.1328125 C27.78515625 141.7928125 27.78515625 142.4528125 27.78515625 143.1328125 C27.12515625 143.1328125 26.46515625 143.1328125 25.78515625 143.1328125 C25.78515625 143.7928125 25.78515625 144.4528125 25.78515625 145.1328125 C25.12515625 145.1328125 24.46515625 145.1328125 23.78515625 145.1328125 C23.78515625 145.7928125 23.78515625 146.4528125 23.78515625 147.1328125 C22.46515625 147.4628125 21.14515625 147.7928125 19.78515625 148.1328125 C19.78515625 148.7928125 19.78515625 149.4528125 19.78515625 150.1328125 C19.12515625 150.1328125 18.46515625 150.1328125 17.78515625 150.1328125 C17.45515625 151.1228125 17.12515625 152.1128125 16.78515625 153.1328125 C14.80558683 154.82369472 12.80570429 156.49111722 10.78515625 158.1328125 C10.45515625 158.7928125 10.12515625 159.4528125 9.78515625 160.1328125 C9.12515625 160.1328125 8.46515625 160.1328125 7.78515625 160.1328125 C7.78515625 160.7928125 7.78515625 161.4528125 7.78515625 162.1328125 C4.65157108 162.64441824 1.9054005 162.78657796 -1.21484375 162.1328125 C-5.31338929 158.90923736 -8.02768982 154.82409918 -10.21484375 150.1328125 C-10.87484375 150.1328125 -11.53484375 150.1328125 -12.21484375 150.1328125 C-12.21484375 149.4728125 -12.21484375 148.8128125 -12.21484375 148.1328125 C-12.77171875 147.9059375 -13.32859375 147.6790625 -13.90234375 147.4453125 C-18.6980383 144.72343181 -22.07654638 140.21110313 -25.58984375 136.0390625 C-26.7582721 134.66840616 -27.94855145 133.31626684 -29.15234375 131.9765625 C-29.79171875 131.265 -30.43109375 130.5534375 -31.08984375 129.8203125 C-31.68539062 129.16417969 -32.2809375 128.50804687 -32.89453125 127.83203125 C-34.21484375 126.1328125 -34.21484375 126.1328125 -34.21484375 124.1328125 C-35.53484375 123.8028125 -36.85484375 123.4728125 -38.21484375 123.1328125 C-38.21484375 122.4728125 -38.21484375 121.8128125 -38.21484375 121.1328125 C-38.87484375 121.1328125 -39.53484375 121.1328125 -40.21484375 121.1328125 C-41.80078125 119.55859375 -41.80078125 119.55859375 -43.58984375 117.4453125 C-44.52570312 116.34896484 -44.52570312 116.34896484 -45.48046875 115.23046875 C-46.79660131 113.63865978 -48.07693291 112.0171677 -49.33984375 110.3828125 C-51.20775087 107.98677977 -51.20775087 107.98677977 -53.96484375 105.9453125 C-54.70734375 105.3471875 -55.44984375 104.7490625 -56.21484375 104.1328125 C-56.21484375 103.4728125 -56.21484375 102.8128125 -56.21484375 102.1328125 C-56.79878906 101.88402344 -57.38273437 101.63523437 -57.984375 101.37890625 C-60.52800659 99.95785813 -62.00892073 98.40088335 -63.90234375 96.1953125 C-64.50433594 95.50566406 -65.10632813 94.81601562 -65.7265625 94.10546875 C-67.21484375 92.1328125 -67.21484375 92.1328125 -68.21484375 89.1328125 C-69.53131494 88.43343718 -70.86506526 87.76552117 -72.21484375 87.1328125 C-74.19644486 83.16961028 -73.77231388 78.44108713 -73.21484375 74.1328125 C-71.83460931 71.41869477 -70.55000904 70.18998192 -68.21484375 68.1328125 C-67.55484375 68.1328125 -66.89484375 68.1328125 -66.21484375 68.1328125 C-66.21484375 67.4728125 -66.21484375 66.8128125 -66.21484375 66.1328125 C-65.55484375 66.1328125 -64.89484375 66.1328125 -64.21484375 66.1328125 C-63.96734375 65.5140625 -63.71984375 64.8953125 -63.46484375 64.2578125 C-61.97744006 61.72922623 -60.77806366 61.41442246 -58.21484375 60.1328125 C-57.51333223 58.8174784 -56.8495845 57.48163658 -56.21484375 56.1328125 C-54.21484375 53.8828125 -54.21484375 53.8828125 -52.21484375 52.1328125 C-51.55484375 52.1328125 -50.89484375 52.1328125 -50.21484375 52.1328125 C-49.95445313 51.545 -49.6940625 50.9571875 -49.42578125 50.3515625 C-48.14014892 47.99595229 -46.76929631 46.48643505 -44.83984375 44.6328125 C-43.90591797 43.72595703 -43.90591797 43.72595703 -42.953125 42.80078125 C-42.37949219 42.25035156 -41.80585937 41.69992187 -41.21484375 41.1328125 C-40.49296875 40.4109375 -39.77109375 39.6890625 -39.02734375 38.9453125 C-37.78771665 37.7056854 -36.53712334 36.47695404 -35.27734375 35.2578125 C-33.5891834 33.51849578 -32.10065982 31.77022495 -30.58984375 29.8828125 C-29.80609375 28.9753125 -29.02234375 28.0678125 -28.21484375 27.1328125 C-27.55484375 27.1328125 -26.89484375 27.1328125 -26.21484375 27.1328125 C-26.21484375 26.4728125 -26.21484375 25.8128125 -26.21484375 25.1328125 C-25.55484375 25.1328125 -24.89484375 25.1328125 -24.21484375 25.1328125 C-24.12203125 24.2665625 -24.12203125 24.2665625 -24.02734375 23.3828125 C-22.89613585 20.25023679 -20.83536574 19.09820399 -18.21484375 17.1328125 C-17.88484375 16.4728125 -17.55484375 15.8128125 -17.21484375 15.1328125 C-16.55484375 15.1328125 -15.89484375 15.1328125 -15.21484375 15.1328125 C-15.21484375 14.4728125 -15.21484375 13.8128125 -15.21484375 13.1328125 C-13.56481547 11.77894314 -11.89740505 10.44603108 -10.21484375 9.1328125 C-9.88484375 8.4728125 -9.55484375 7.8128125 -9.21484375 7.1328125 C-8.55484375 7.1328125 -7.89484375 7.1328125 -7.21484375 7.1328125 C-7.21484375 6.4728125 -7.21484375 5.8128125 -7.21484375 5.1328125 C-6.55484375 5.1328125 -5.89484375 5.1328125 -5.21484375 5.1328125 C-4.75078125 4.17375 -4.75078125 4.17375 -4.27734375 3.1953125 C-2.71514706 0.16281305 -2.71514706 0.16281305 0 0 Z " fill="#000000" transform="translate(73.21484375,217.8671875)"/>
<path d="M0 0 C4.35173406 1.39374106 6.93539732 4.95922847 9.29296875 8.734375 C9.29296875 9.394375 9.29296875 10.054375 9.29296875 10.734375 C9.95296875 10.734375 10.61296875 10.734375 11.29296875 10.734375 C11.29296875 11.394375 11.29296875 12.054375 11.29296875 12.734375 C11.95296875 12.734375 12.61296875 12.734375 13.29296875 12.734375 C15.00527123 14.35412059 16.66460137 16.0302696 18.29296875 17.734375 C19.09734375 18.4975 19.90171875 19.260625 20.73046875 20.046875 C29.29296875 29.02705793 29.29296875 29.02705793 29.29296875 32.734375 C30.22109375 33.105625 30.22109375 33.105625 31.16796875 33.484375 C33.69655502 34.97177869 34.01135879 36.17115509 35.29296875 38.734375 C37.24317958 39.95965448 37.24317958 39.95965448 39.29296875 40.734375 C39.95296875 41.064375 40.61296875 41.394375 41.29296875 41.734375 C41.29296875 42.394375 41.29296875 43.054375 41.29296875 43.734375 C41.95296875 43.734375 42.61296875 43.734375 43.29296875 43.734375 C44.29296875 45.40104167 45.29296875 47.06770833 46.29296875 48.734375 C48.77550293 51.41819574 51.31870139 53.755073 54.16796875 56.046875 C57.38682072 58.66687079 60.00404164 61.70561974 62.6796875 64.8671875 C64.25063037 66.74807585 64.25063037 66.74807585 66 68.3515625 C67.29296875 69.734375 67.29296875 69.734375 67.29296875 71.734375 C67.89109375 71.981875 68.48921875 72.229375 69.10546875 72.484375 C71.68432776 73.95800872 72.72474296 75.21822443 74.29296875 77.734375 C74.83203125 80.25 74.83203125 80.25 74.91796875 82.984375 C74.97210937 83.87640625 75.02625 84.7684375 75.08203125 85.6875 C73.83621292 90.49808564 70.71956333 93.23874515 67.29296875 96.734375 C66.8413739 97.19652405 66.38977905 97.6586731 65.92449951 98.13482666 C62.20565854 101.93087647 58.43995737 105.67875919 54.66796875 109.421875 C53.53752494 110.54728957 52.40731503 111.67293912 51.27734375 112.79882812 C49.20114637 114.86693247 47.12360285 116.93366292 45.04443359 118.9987793 C44.1364502 119.90152588 43.2284668 120.80427246 42.29296875 121.734375 C41.39529785 122.61843018 40.49762695 123.50248535 39.57275391 124.41333008 C37.20974191 126.73001866 37.20974191 126.73001866 35.10546875 129.546875 C34.50734375 130.26875 33.90921875 130.990625 33.29296875 131.734375 C32.63296875 131.734375 31.97296875 131.734375 31.29296875 131.734375 C31.29296875 132.394375 31.29296875 133.054375 31.29296875 133.734375 C30.63296875 133.734375 29.97296875 133.734375 29.29296875 133.734375 C29.29296875 134.394375 29.29296875 135.054375 29.29296875 135.734375 C28.63296875 135.734375 27.97296875 135.734375 27.29296875 135.734375 C27.29296875 136.394375 27.29296875 137.054375 27.29296875 137.734375 C26.63296875 137.734375 25.97296875 137.734375 25.29296875 137.734375 C24.96296875 139.054375 24.63296875 140.374375 24.29296875 141.734375 C23.63296875 141.734375 22.97296875 141.734375 22.29296875 141.734375 C22.29296875 142.394375 22.29296875 143.054375 22.29296875 143.734375 C19.72094831 146.53333842 16.98197345 149.02239774 14.04296875 151.421875 C11.27554681 153.4386072 11.27554681 153.4386072 10.29296875 155.734375 C9.63296875 155.734375 8.97296875 155.734375 8.29296875 155.734375 C8.29296875 156.394375 8.29296875 157.054375 8.29296875 157.734375 C7.63296875 157.734375 6.97296875 157.734375 6.29296875 157.734375 C6.29296875 158.394375 6.29296875 159.054375 6.29296875 159.734375 C5.63296875 159.734375 4.97296875 159.734375 4.29296875 159.734375 C3.96296875 160.724375 3.63296875 161.714375 3.29296875 162.734375 C1.66805921 162.76135689 0.04302242 162.78076257 -1.58203125 162.796875 C-2.93941406 162.81427734 -2.93941406 162.81427734 -4.32421875 162.83203125 C-6.70703125 162.734375 -6.70703125 162.734375 -8.70703125 161.734375 C-8.70703125 161.074375 -8.70703125 160.414375 -8.70703125 159.734375 C-9.36703125 159.734375 -10.02703125 159.734375 -10.70703125 159.734375 C-10.70703125 159.074375 -10.70703125 158.414375 -10.70703125 157.734375 C-11.36703125 157.734375 -12.02703125 157.734375 -12.70703125 157.734375 C-12.70703125 157.074375 -12.70703125 156.414375 -12.70703125 155.734375 C-13.36703125 155.734375 -14.02703125 155.734375 -14.70703125 155.734375 C-14.70703125 155.074375 -14.70703125 154.414375 -14.70703125 153.734375 C-15.36703125 153.734375 -16.02703125 153.734375 -16.70703125 153.734375 C-16.70703125 153.074375 -16.70703125 152.414375 -16.70703125 151.734375 C-17.36703125 151.734375 -18.02703125 151.734375 -18.70703125 151.734375 C-20.83203125 149.859375 -20.83203125 149.859375 -22.70703125 147.734375 C-22.70703125 147.074375 -22.70703125 146.414375 -22.70703125 145.734375 C-23.36703125 145.734375 -24.02703125 145.734375 -24.70703125 145.734375 C-24.70703125 145.074375 -24.70703125 144.414375 -24.70703125 143.734375 C-25.36703125 143.734375 -26.02703125 143.734375 -26.70703125 143.734375 C-26.70703125 143.074375 -26.70703125 142.414375 -26.70703125 141.734375 C-27.36703125 141.734375 -28.02703125 141.734375 -28.70703125 141.734375 C-28.70703125 141.074375 -28.70703125 140.414375 -28.70703125 139.734375 C-29.36703125 139.734375 -30.02703125 139.734375 -30.70703125 139.734375 C-30.70703125 139.074375 -30.70703125 138.414375 -30.70703125 137.734375 C-31.36703125 137.734375 -32.02703125 137.734375 -32.70703125 137.734375 C-33.88650859 133.60620432 -33.62322556 131.55552495 -31.70703125 127.734375 C-29.4296875 125.05859375 -29.4296875 125.05859375 -26.76953125 122.421875 C-25.45662109 121.09736328 -25.45662109 121.09736328 -24.1171875 119.74609375 C-21.70703125 117.734375 -21.70703125 117.734375 -18.70703125 117.734375 C-18.48015625 117.198125 -18.25328125 116.661875 -18.01953125 116.109375 C-16.27662998 112.95555366 -14.03815821 110.48352311 -11.70703125 107.734375 C-12.5854216 107.73294998 -13.46381195 107.73152496 -14.36882019 107.73005676 C-22.65271734 107.71221659 -30.93608081 107.67057318 -39.21972179 107.60228443 C-43.47833974 107.5680143 -47.73659896 107.54290448 -51.99536133 107.53881836 C-56.10650234 107.53453534 -60.21683413 107.50607356 -64.32772255 107.46094322 C-65.89492387 107.44796811 -67.46222204 107.44366063 -69.02947044 107.44822121 C-71.22780763 107.4531277 -73.42378002 107.42703966 -75.62182617 107.39379883 C-76.87203049 107.38713699 -78.1222348 107.38047516 -79.4103241 107.37361145 C-83.62482506 106.55641341 -85.11416019 105.10073303 -87.70703125 101.734375 C-88.32849121 99.63473511 -88.32849121 99.63473511 -88.32226562 97.54248047 C-88.33157104 96.75171112 -88.34087646 95.96094177 -88.35046387 95.14620972 C-88.3340686 94.30647614 -88.31767334 93.46674255 -88.30078125 92.6015625 C-88.30082153 91.72791046 -88.30086182 90.85425842 -88.30090332 89.95413208 C-88.29555621 88.11339089 -88.27800802 86.27264965 -88.24902344 84.43212891 C-88.20706432 81.6115979 -88.20796497 78.79344761 -88.21484375 75.97265625 C-88.20435437 74.18227505 -88.19141762 72.39190615 -88.17578125 70.6015625 C-88.17547913 69.33588943 -88.17547913 69.33588943 -88.1751709 68.04464722 C-88.05855642 62.29547977 -88.05855642 62.29547977 -86.62663269 60.00984192 C-83.66206405 58.04005321 -81.10063263 58.37583374 -77.57348633 58.39379883 C-76.85128403 58.39336075 -76.12908173 58.39292267 -75.38499451 58.39247131 C-72.9985752 58.39456086 -70.61285902 58.41789887 -68.2265625 58.44140625 C-66.57175582 58.44700164 -64.91694417 58.451272 -63.26213074 58.45426941 C-58.90709711 58.46572276 -54.55236374 58.49519402 -50.19744873 58.52838135 C-45.7534186 58.55907174 -41.30933994 58.57277253 -36.86523438 58.58789062 C-28.14569556 58.62006338 -19.42640076 58.67126548 -10.70703125 58.734375 C-10.70703125 58.074375 -10.70703125 57.414375 -10.70703125 56.734375 C-11.36703125 56.734375 -12.02703125 56.734375 -12.70703125 56.734375 C-12.70703125 56.074375 -12.70703125 55.414375 -12.70703125 54.734375 C-13.36703125 54.734375 -14.02703125 54.734375 -14.70703125 54.734375 C-16.70703125 51.734375 -16.70703125 51.734375 -16.70703125 48.734375 C-17.36703125 48.734375 -18.02703125 48.734375 -18.70703125 48.734375 C-18.70703125 48.074375 -18.70703125 47.414375 -18.70703125 46.734375 C-20.68703125 46.239375 -20.68703125 46.239375 -22.70703125 45.734375 C-22.70703125 44.744375 -22.70703125 43.754375 -22.70703125 42.734375 C-23.36703125 42.734375 -24.02703125 42.734375 -24.70703125 42.734375 C-24.70703125 42.074375 -24.70703125 41.414375 -24.70703125 40.734375 C-26.02703125 40.074375 -27.34703125 39.414375 -28.70703125 38.734375 C-28.70703125 38.074375 -28.70703125 37.414375 -28.70703125 36.734375 C-29.34640625 36.5075 -29.98578125 36.280625 -30.64453125 36.046875 C-32.70703125 34.734375 -32.70703125 34.734375 -33.64453125 32.484375 C-33.72595476 28.90174054 -32.48519512 26.79281685 -30.70703125 23.734375 C-30.04703125 23.734375 -29.38703125 23.734375 -28.70703125 23.734375 C-28.70703125 23.074375 -28.70703125 22.414375 -28.70703125 21.734375 C-27.02734375 20.0078125 -27.02734375 20.0078125 -24.83203125 18.109375 C-24.11273438 17.47773438 -23.3934375 16.84609375 -22.65234375 16.1953125 C-20.70703125 14.734375 -20.70703125 14.734375 -18.70703125 14.734375 C-18.70703125 14.074375 -18.70703125 13.414375 -18.70703125 12.734375 C-18.04703125 12.734375 -17.38703125 12.734375 -16.70703125 12.734375 C-16.70703125 12.074375 -16.70703125 11.414375 -16.70703125 10.734375 C-15.38703125 10.734375 -14.06703125 10.734375 -12.70703125 10.734375 C-12.64515625 10.198125 -12.58328125 9.661875 -12.51953125 9.109375 C-10.28385834 2.57433112 -6.86821007 -0.41416342 0 0 Z " fill="#000000" transform="translate(516.70703125,222.265625)"/>
<path d="M0 0 C2.24940295 -0.08119503 4.49964871 -0.13927819 6.75 -0.1875 C8.00296875 -0.22230469 9.2559375 -0.25710937 10.546875 -0.29296875 C14.1381757 0.01172305 15.533239 0.42734269 18 3 C18 3.66 18 4.32 18 5 C18.66 5 19.32 5 20 5 C20 5.66 20 6.32 20 7 C20.66 7 21.32 7 22 7 C22 7.66 22 8.32 22 9 C22.66 9 23.32 9 24 9 C24 9.66 24 10.32 24 11 C24.66 11 25.32 11 26 11 C26 11.66 26 12.32 26 13 C26.66 13 27.32 13 28 13 C28 13.66 28 14.32 28 15 C28.66 15 29.32 15 30 15 C30 15.66 30 16.32 30 17 C30.66 17 31.32 17 32 17 C32 17.66 32 18.32 32 19 C32.639375 19.2475 33.27875 19.495 33.9375 19.75 C34.618125 20.1625 35.29875 20.575 36 21 C36.2165625 21.99 36.2165625 21.99 36.4375 23 C36.623125 23.66 36.80875 24.32 37 25 C38.65697379 25.69040574 40.3255761 26.3530635 42 27 C45.78826302 30.38949849 48.97888504 34.2917491 52.28515625 38.140625 C54.09118439 40.19726499 54.09118439 40.19726499 56.9375 42.3125 C57.618125 42.869375 58.29875 43.42625 59 44 C59 44.99 59 45.98 59 47 C59.54011719 47.06058594 60.08023438 47.12117188 60.63671875 47.18359375 C64.0259064 48.35440403 66.25798402 50.64001699 68.8125 53.0625 C69.34439941 53.55766113 69.87629883 54.05282227 70.42431641 54.56298828 C74.01708327 57.95001644 77.31961989 61.49096464 80.46484375 65.30078125 C82.00337706 67.00373796 83.57765789 68.22910971 85.4375 69.5625 C88 72 88 72 88.6875 75.4375 C87.79335174 80.07081371 86.35074799 81.72903173 83 85 C82.34 85 81.68 85 81 85 C81 85.66 81 86.32 81 87 C80.34 87 79.68 87 79 87 C79 87.66 79 88.32 79 89 C78.34 89 77.68 89 77 89 C77 89.66 77 90.32 77 91 C76.34 91 75.68 91 75 91 C75 91.66 75 92.32 75 93 C74.34 93 73.68 93 73 93 C73 93.66 73 94.32 73 95 C72.34 95 71.68 95 71 95 C70.938125 95.61875 70.87625 96.2375 70.8125 96.875 C70.544375 97.57625 70.27625 98.2775 70 99 C68.33927151 99.68132451 66.672233 100.34742127 65 101 C63.90833725 102.93330603 63.90833725 102.93330603 63 105 C61.25 106.8125 61.25 106.8125 59 108 C55.75 107.6875 55.75 107.6875 53 107 C53 106.34 53 105.68 53 105 C52.34 105 51.68 105 51 105 C51 104.34 51 103.68 51 103 C50.34 103 49.68 103 49 103 C46.875 101.125 46.875 101.125 45 99 C45 98.34 45 97.68 45 97 C44.34 97 43.68 97 43 97 C43 96.34 43 95.68 43 95 C42.34 95 41.68 95 41 95 C41 94.34 41 93.68 41 93 C40.34 93 39.68 93 39 93 C39 92.34 39 91.68 39 91 C38.34 91 37.68 91 37 91 C37 90.34 37 89.68 37 89 C36.34 89 35.68 89 35 89 C35 88.34 35 87.68 35 87 C34.34 87 33.68 87 33 87 C33 86.34 33 85.68 33 85 C32.34 85 31.68 85 31 85 C31.00999275 86.34303947 31.00999275 86.34303947 31.02018738 87.71321106 C31.080259 96.14459849 31.12595428 104.57591421 31.15543652 113.00746632 C31.17110311 117.34239125 31.19235934 121.6771396 31.22631836 126.01196289 C31.25887664 130.19408088 31.27684553 134.37602885 31.28463173 138.55826378 C31.29018162 140.15510422 31.30101906 141.75193519 31.31719017 143.34870338 C31.33891808 145.58269094 31.34196896 147.81597288 31.34057617 150.05004883 C31.35056892 151.95866447 31.35056892 151.95866447 31.36076355 153.90583801 C31 157 31 157 29.75144958 158.91209412 C27.55584531 160.2758849 26.21526812 160.36862471 23.63623047 160.35644531 C22.32004227 160.36094696 22.32004227 160.36094696 20.9772644 160.36553955 C20.03343903 160.35319275 19.08961365 160.34084595 18.1171875 160.328125 C16.66217331 160.32531525 16.66217331 160.32531525 15.17776489 160.32244873 C13.12840332 160.31572701 11.07905461 160.30181016 9.02978516 160.28125 C5.88041364 160.25005363 2.73154205 160.24027572 -0.41796875 160.234375 C-2.40625615 160.22520694 -4.39453843 160.2148318 -6.3828125 160.203125 C-7.33068634 160.19887512 -8.27856018 160.19462524 -9.25515747 160.19024658 C-10.12631195 160.18063904 -10.99746643 160.17103149 -11.89501953 160.16113281 C-13.0505986 160.15089081 -13.0505986 160.15089081 -14.22952271 160.14044189 C-16 160 -16 160 -17 159 C-17.1241622 156.73079775 -17.17803748 154.4577355 -17.20532227 152.18530273 C-17.21522186 151.47314606 -17.22512146 150.76098938 -17.23532104 150.0272522 C-17.26702212 147.66273372 -17.29172724 145.29819511 -17.31640625 142.93359375 C-17.33696836 141.29833948 -17.35796463 139.66309062 -17.37937927 138.02784729 C-17.43467672 133.71571214 -17.48405201 129.40352842 -17.53222656 125.09130859 C-17.58238572 120.69429176 -17.63810087 116.2973458 -17.69335938 111.90039062 C-17.80103473 103.26698693 -17.90245871 94.6335241 -18 86 C-18.5775 86.495 -19.155 86.99 -19.75 87.5 C-22 89 -22 89 -26 89 C-26.66 90.32 -27.32 91.64 -28 93 C-28.66 93 -29.32 93 -30 93 C-30 93.99 -30 94.98 -30 96 C-30.66 96 -31.32 96 -32 96 C-32 96.99 -32 97.98 -32 99 C-32.66 99 -33.32 99 -34 99 C-34 99.66 -34 100.32 -34 101 C-37.61742323 104.62546195 -41.09383714 107.89210399 -46.3125 108.1875 C-49.30232945 106.86641257 -50.98093493 105.56265951 -53 103 C-53 102.34 -53 101.68 -53 101 C-53.66 101 -54.32 101 -55 101 C-55 100.34 -55 99.68 -55 99 C-56.32 98.34 -57.64 97.68 -59 97 C-59 96.34 -59 95.68 -59 95 C-59.66 95 -60.32 95 -61 95 C-61 94.34 -61 93.68 -61 93 C-61.66 93 -62.32 93 -63 93 C-63 92.34 -63 91.68 -63 91 C-63.99 90.67 -64.98 90.34 -66 90 C-66 89.01 -66 88.02 -66 87 C-66.66 87 -67.32 87 -68 87 C-68 86.34 -68 85.68 -68 85 C-68.66 85 -69.32 85 -70 85 C-70 84.34 -70 83.68 -70 83 C-70.66 83 -71.32 83 -72 83 C-74.1875 80.8125 -74.1875 80.8125 -76 78 C-75.76361483 73.49762286 -73.9501497 71.4561127 -70.81640625 68.35546875 C-69.97142578 67.51435547 -69.12644531 66.67324219 -68.25585938 65.80664062 C-66.92264648 64.51016602 -66.92264648 64.51016602 -65.5625 63.1875 C-64.67755859 62.30384766 -63.79261719 61.42019531 -62.88085938 60.50976562 C-56.28061052 54 -56.28061052 54 -54 54 C-53.5978125 53.1028125 -53.5978125 53.1028125 -53.1875 52.1875 C-51.99012525 49.98180967 -50.95521016 48.56416813 -49 47 C-48.01 47 -47.02 47 -46 47 C-45.773125 46.443125 -45.54625 45.88625 -45.3125 45.3125 C-43.63281165 42.3530491 -41.45866715 40.33873216 -39 38 C-38.443125 37.401875 -37.88625 36.80375 -37.3125 36.1875 C-36 35 -36 35 -34 35 C-34 34.34 -34 33.68 -34 33 C-32.35546875 31.30859375 -32.35546875 31.30859375 -30.1875 29.4375 C-29.47980469 28.81746094 -28.77210938 28.19742188 -28.04296875 27.55859375 C-26 26 -26 26 -23 25 C-22.773125 24.29875 -22.54625 23.5975 -22.3125 22.875 C-20.33209734 18.53697512 -16.83199386 15.77021223 -13 13 C-12.34 13 -11.68 13 -11 13 C-11 12.34 -11 11.68 -11 11 C-10.34 11 -9.68 11 -9 11 C-9 10.34 -9 9.68 -9 9 C-8.34 9 -7.68 9 -7 9 C-7 8.34 -7 7.68 -7 7 C-6.34 7 -5.68 7 -5 7 C-5 6.34 -5 5.68 -5 5 C-4.34 5 -3.68 5 -3 5 C-3 4.34 -3 3.68 -3 3 C-2.34 3 -1.68 3 -1 3 C-0.67 2.01 -0.34 1.02 0 0 Z " fill="#000000" transform="translate(296,19)"/>
<path d="M0 0 C0.85743805 -0.0030011 1.7148761 -0.0060022 2.59829712 -0.00909424 C3.52024872 0.00325256 4.44220032 0.01559937 5.39208984 0.02832031 C6.33990326 0.03019348 7.28771667 0.03206665 8.26425171 0.03399658 C10.26653565 0.0407178 12.26880645 0.05463367 14.27099609 0.07519531 C17.34794205 0.10639375 20.4243763 0.11616986 23.50146484 0.12207031 C25.44417947 0.13123831 27.38688886 0.14161343 29.32958984 0.15332031 C30.71858994 0.15969513 30.71858994 0.15969513 32.13565063 0.16619873 C32.98678436 0.17580627 33.83791809 0.18541382 34.71484375 0.1953125 C35.4674649 0.2021405 36.22008606 0.20896851 36.99551392 0.21600342 C38.72802734 0.35644531 38.72802734 0.35644531 39.72802734 1.35644531 C39.8224607 3.65698367 39.84544863 5.96046704 39.84155273 8.26293945 C39.84169876 8.9848497 39.84184479 9.70675995 39.84199524 10.45054626 C39.84129603 12.84759479 39.8335033 15.24456654 39.82568359 17.64160156 C39.82381944 19.2992702 39.82239553 20.95693938 39.82139587 22.61460876 C39.81757047 26.98598745 39.80774 31.35733312 39.79669189 35.72869873 C39.78647826 40.18598992 39.78189836 44.64328643 39.77685547 49.10058594 C39.76611774 57.85255425 39.74904106 66.60449568 39.72802734 75.35644531 C40.38802734 75.35644531 41.04802734 75.35644531 41.72802734 75.35644531 C41.72802734 74.69644531 41.72802734 74.03644531 41.72802734 73.35644531 C42.38802734 73.35644531 43.04802734 73.35644531 43.72802734 73.35644531 C43.72802734 72.69644531 43.72802734 72.03644531 43.72802734 71.35644531 C45.04802734 71.35644531 46.36802734 71.35644531 47.72802734 71.35644531 C47.72802734 70.69644531 47.72802734 70.03644531 47.72802734 69.35644531 C48.38802734 69.35644531 49.04802734 69.35644531 49.72802734 69.35644531 C49.72802734 68.69644531 49.72802734 68.03644531 49.72802734 67.35644531 C51.60302734 65.23144531 51.60302734 65.23144531 53.72802734 63.35644531 C54.38802734 63.35644531 55.04802734 63.35644531 55.72802734 63.35644531 C55.72802734 62.69644531 55.72802734 62.03644531 55.72802734 61.35644531 C56.38802734 61.35644531 57.04802734 61.35644531 57.72802734 61.35644531 C57.72802734 60.69644531 57.72802734 60.03644531 57.72802734 59.35644531 C58.38802734 59.35644531 59.04802734 59.35644531 59.72802734 59.35644531 C59.72802734 58.69644531 59.72802734 58.03644531 59.72802734 57.35644531 C60.38802734 57.35644531 61.04802734 57.35644531 61.72802734 57.35644531 C61.72802734 56.69644531 61.72802734 56.03644531 61.72802734 55.35644531 C62.38802734 55.35644531 63.04802734 55.35644531 63.72802734 55.35644531 C63.72802734 54.69644531 63.72802734 54.03644531 63.72802734 53.35644531 C67.12645725 52.50683784 69.4230545 52.12493452 72.72802734 53.35644531 C74.57958984 55.06347656 74.57958984 55.06347656 76.35302734 57.16894531 C77.23861328 58.19955078 77.23861328 58.19955078 78.14208984 59.25097656 C79.62713313 61.22249954 80.7104194 63.11468524 81.72802734 65.35644531 C82.38802734 65.35644531 83.04802734 65.35644531 83.72802734 65.35644531 C83.72802734 66.01644531 83.72802734 66.67644531 83.72802734 67.35644531 C84.38802734 67.35644531 85.04802734 67.35644531 85.72802734 67.35644531 C85.72802734 68.01644531 85.72802734 68.67644531 85.72802734 69.35644531 C86.32099609 69.61554688 86.91396484 69.87464844 87.52490234 70.14160156 C89.88660875 71.44389002 91.2368918 72.74943009 92.97802734 74.79394531 C93.75919922 75.68919922 93.75919922 75.68919922 94.55615234 76.60253906 C95.72802734 78.35644531 95.72802734 78.35644531 95.72802734 81.35644531 C96.38802734 81.35644531 97.04802734 81.35644531 97.72802734 81.35644531 C97.72802734 83.66644531 97.72802734 85.97644531 97.72802734 88.35644531 C97.10927734 88.60394531 96.49052734 88.85144531 95.85302734 89.10644531 C93.6106389 90.1660729 93.6106389 90.1660729 92.79052734 92.23144531 C91.35477792 95.10294416 89.2381833 96.37167083 86.72802734 98.35644531 C85.53773978 99.80409235 84.34847354 101.25270969 83.17724609 102.71582031 C80.89265231 105.3021529 78.26470357 107.46166501 75.64208984 109.69628906 C74.07021978 111.05964575 72.57433916 112.51013349 71.10302734 113.98144531 C68.45214368 116.63232898 65.60713433 118.95718949 62.72802734 121.35644531 C60.26664983 123.75129911 57.87422036 126.20541315 55.48583984 128.67285156 C54.67888672 129.4965625 53.87193359 130.32027344 53.04052734 131.16894531 C52.27353516 131.95914063 51.50654297 132.74933594 50.71630859 133.56347656 C48.72802734 135.35644531 48.72802734 135.35644531 46.72802734 135.35644531 C46.48052734 135.97519531 46.23302734 136.59394531 45.97802734 137.23144531 C44.52174095 139.70713218 43.34990228 140.30769534 40.72802734 141.35644531 C40.72802734 142.01644531 40.72802734 142.67644531 40.72802734 143.35644531 C40.06802734 143.35644531 39.40802734 143.35644531 38.72802734 143.35644531 C38.72802734 144.01644531 38.72802734 144.67644531 38.72802734 145.35644531 C38.06802734 145.35644531 37.40802734 145.35644531 36.72802734 145.35644531 C36.72802734 146.01644531 36.72802734 146.67644531 36.72802734 147.35644531 C36.06802734 147.35644531 35.40802734 147.35644531 34.72802734 147.35644531 C34.72802734 148.01644531 34.72802734 148.67644531 34.72802734 149.35644531 C32.85302734 151.48144531 32.85302734 151.48144531 30.72802734 153.35644531 C30.06802734 153.35644531 29.40802734 153.35644531 28.72802734 153.35644531 C28.72802734 154.01644531 28.72802734 154.67644531 28.72802734 155.35644531 C25.82871013 158.93795481 24.03679659 160.12815342 19.45849609 160.92675781 C10.38680397 161.37116446 10.38680397 161.37116446 6.26318359 158.84863281 C4.47539173 157.10105713 3.01654017 155.49750798 1.72802734 153.35644531 C1.72802734 152.69644531 1.72802734 152.03644531 1.72802734 151.35644531 C1.13892578 151.09476563 0.54982422 150.83308594 -0.05712891 150.56347656 C-2.389827 149.29221781 -3.87551634 147.95414 -5.70947266 146.04394531 C-6.60666016 145.11582031 -6.60666016 145.11582031 -7.52197266 144.16894531 C-8.09947266 143.57082031 -8.67697266 142.97269531 -9.27197266 142.35644531 C-10.24989123 141.41764348 -11.22888594 140.4799599 -12.20947266 139.54394531 C-14.27197266 137.35644531 -14.27197266 137.35644531 -14.27197266 135.35644531 C-14.86107422 135.09476563 -15.45017578 134.83308594 -16.05712891 134.56347656 C-18.389827 133.29221781 -19.87551634 131.95414 -21.70947266 130.04394531 C-22.31533203 129.42132812 -22.92119141 128.79871094 -23.54541016 128.15722656 C-24.11517578 127.56296875 -24.68494141 126.96871094 -25.27197266 126.35644531 C-27.8611365 123.70413113 -30.4229455 121.23063461 -33.27197266 118.85644531 C-36.11198963 116.4897645 -38.66037936 113.96803861 -41.27197266 111.35644531 C-42.03509766 110.79957031 -42.79822266 110.24269531 -43.58447266 109.66894531 C-44.14134766 109.23582031 -44.69822266 108.80269531 -45.27197266 108.35644531 C-45.27197266 107.69644531 -45.27197266 107.03644531 -45.27197266 106.35644531 C-45.89072266 106.10894531 -46.50947266 105.86144531 -47.14697266 105.60644531 C-49.62265952 104.15015892 -50.22322268 102.97832025 -51.27197266 100.35644531 C-51.93197266 100.35644531 -52.59197266 100.35644531 -53.27197266 100.35644531 C-55.39697266 98.48144531 -55.39697266 98.48144531 -57.27197266 96.35644531 C-57.27197266 95.69644531 -57.27197266 95.03644531 -57.27197266 94.35644531 C-57.93197266 94.35644531 -58.59197266 94.35644531 -59.27197266 94.35644531 C-59.27197266 93.69644531 -59.27197266 93.03644531 -59.27197266 92.35644531 C-59.93197266 92.35644531 -60.59197266 92.35644531 -61.27197266 92.35644531 C-61.27197266 91.69644531 -61.27197266 91.03644531 -61.27197266 90.35644531 C-62.26197266 90.02644531 -63.25197266 89.69644531 -64.27197266 89.35644531 C-64.55768694 80.78501674 -64.55768694 80.78501674 -62.27197266 77.35644531 C-61.61197266 77.35644531 -60.95197266 77.35644531 -60.27197266 77.35644531 C-60.27197266 76.69644531 -60.27197266 76.03644531 -60.27197266 75.35644531 C-59.61197266 75.35644531 -58.95197266 75.35644531 -58.27197266 75.35644531 C-58.27197266 74.69644531 -58.27197266 74.03644531 -58.27197266 73.35644531 C-57.61197266 73.35644531 -56.95197266 73.35644531 -56.27197266 73.35644531 C-56.27197266 72.69644531 -56.27197266 72.03644531 -56.27197266 71.35644531 C-55.61197266 71.35644531 -54.95197266 71.35644531 -54.27197266 71.35644531 C-54.27197266 70.69644531 -54.27197266 70.03644531 -54.27197266 69.35644531 C-53.59134766 68.82019531 -52.91072266 68.28394531 -52.20947266 67.73144531 C-48.40985157 64.65941124 -45.44541302 61.05373109 -42.27197266 57.35644531 C-37.98684529 52.58158911 -37.98684529 52.58158911 -34.27197266 52.35644531 C-30.2958967 53.4498662 -27.92163516 55.21610457 -25.27197266 58.35644531 C-25.27197266 59.01644531 -25.27197266 59.67644531 -25.27197266 60.35644531 C-24.34384766 60.69675781 -24.34384766 60.69675781 -23.39697266 61.04394531 C-21.27197266 62.35644531 -21.27197266 62.35644531 -20.27197266 64.91894531 C-19.94197266 65.72332031 -19.61197266 66.52769531 -19.27197266 67.35644531 C-17.33578841 68.02801148 -17.33578841 68.02801148 -15.27197266 68.35644531 C-13.52197266 69.79394531 -13.52197266 69.79394531 -12.27197266 71.35644531 C-12.27197266 72.01644531 -12.27197266 72.67644531 -12.27197266 73.35644531 C-10.62197266 74.01644531 -8.97197266 74.67644531 -7.27197266 75.35644531 C-7.27863449 74.46108566 -7.28529633 73.56572601 -7.29216003 72.64323425 C-7.35223165 64.21184682 -7.39792694 55.7805311 -7.42740917 47.348979 C-7.44307577 43.01405406 -7.46433199 38.67930572 -7.49829102 34.34448242 C-7.5308493 30.16236443 -7.54881818 25.98041646 -7.55660439 21.79818153 C-7.56215427 20.2013411 -7.57299172 18.60451013 -7.58916283 17.00774193 C-7.61089074 14.77375438 -7.61394161 12.54047243 -7.61254883 10.30639648 C-7.61921066 9.03398605 -7.6258725 7.76157562 -7.63273621 6.4506073 C-7.27197266 3.35644531 -7.27197266 3.35644531 -6.01768494 1.4443512 C-3.84961481 0.09323723 -2.54828469 -0.01231762 0 0 Z " fill="#000000" transform="translate(281.27197265625,417.6435546875)"/>
</svg>
