<svg width="20" height="20" viewBox="0 0 20 20" fill="none" xmlns="http://www.w3.org/2000/svg">
<path d="M14 3H6C4.89543 3 4 3.89543 4 5V14C4 15.1046 4.89543 16 6 16H14C15.1046 16 16 15.1046 16 14V5C16 3.89543 15.1046 3 14 3Z" fill="#212121" opacity="0.3"/>
<path d="M12 5.5H5C4.17157 5.5 3.5 6.17157 3.5 7V15C3.5 15.8284 4.17157 16.5 5 16.5H12C12.8284 16.5 13.5 15.8284 13.5 15V7C13.5 6.17157 12.8284 5.5 12 5.5Z" fill="#212121" opacity="0.6"/>
<path d="M15 7.5H8C7.17157 7.5 6.5 8.17157 6.5 9V17C6.5 17.8284 7.17157 18.5 8 18.5H15C15.8284 18.5 16.5 17.8284 16.5 17V9C16.5 8.17157 15.8284 7.5 15 7.5Z" fill="#212121"/>
</svg>